<svg width="22" height="25" viewBox="0 0 22 25" fill="none" xmlns="http://www.w3.org/2000/svg">
<path d="M19.6263 0.707041L3.03407 10.6555C3.03407 6.10968 3.03407 2.42061 3.03407 1.9922C3.05119 1.79217 3.02888 1.59076 2.96846 1.39937C2.90804 1.20799 2.81063 1.03045 2.68187 0.876856C2.55311 0.723257 2.39555 0.596608 2.21805 0.504178C2.04055 0.411748 1.8466 0.35533 1.64739 0.33814C1.44817 0.32095 1.24758 0.343278 1.05698 0.403945C0.866375 0.464612 0.68949 0.562427 0.536518 0.691715C0.383546 0.821003 0.257486 0.979281 0.165433 1.15751C0.0733797 1.33573 0.0171201 1.5304 0 1.73043C0 2.15884 0 13.6306 0 23.1506C0 23.5546 0.159869 23.9421 0.444362 24.2277C0.728855 24.5134 1.1147 24.6739 1.51704 24.6739C1.91937 24.6739 2.30522 24.5134 2.58971 24.2277C2.8742 23.9421 3.03407 23.5546 3.03407 23.1506C3.03407 20.485 3.03407 17.391 3.03407 14.3922L19.6263 24.3407C19.8701 24.4713 20.1432 24.5368 20.4195 24.5308C20.6958 24.5248 20.9659 24.4476 21.2039 24.3066C21.4419 24.1656 21.6399 23.9655 21.7787 23.7256C21.9175 23.4857 21.9925 23.2139 21.9966 22.9365V2.18264C22.005 1.89916 21.939 1.61841 21.8053 1.36858C21.6716 1.11875 21.4748 0.908637 21.2347 0.759191C20.9947 0.609744 20.7198 0.526257 20.4375 0.517107C20.1551 0.507956 19.8754 0.573451 19.6263 0.707041Z" fill="#BCBEC0"/>
</svg>
