<svg width="13" height="17" viewBox="0 0 13 17" fill="none" xmlns="http://www.w3.org/2000/svg">
<mask id="path-1-outside-1_93_1034" maskUnits="userSpaceOnUse" x="0" y="0" width="14" height="18" fill="black">
<rect fill="white" width="14" height="18"/>
<path d="M12.825 1.735V1.915C12.15 2.86 10.26 4.165 7.2 5.74C4.365 7.18 2.925 8.035 2.925 8.35C2.925 8.845 6.21 11.455 12.78 16.09C12.915 16.18 12.915 16.315 12.78 16.495C12.645 16.675 12.465 16.765 12.24 16.765C11.385 16.81 9.225 15.55 5.715 12.985C2.295 10.51 0.585 9.07 0.585 8.665C0.585 7.855 2.34 6.55 5.85 4.705C9.675 2.77 11.79 1.555 12.105 1.06C12.285 0.789999 12.465 0.744999 12.6 0.969999C12.735 1.195 12.825 1.42 12.825 1.735Z"/>
</mask>
<path d="M12.825 1.735V1.915C12.15 2.86 10.26 4.165 7.2 5.74C4.365 7.18 2.925 8.035 2.925 8.35C2.925 8.845 6.21 11.455 12.78 16.09C12.915 16.18 12.915 16.315 12.78 16.495C12.645 16.675 12.465 16.765 12.24 16.765C11.385 16.81 9.225 15.55 5.715 12.985C2.295 10.51 0.585 9.07 0.585 8.665C0.585 7.855 2.34 6.55 5.85 4.705C9.675 2.77 11.79 1.555 12.105 1.06C12.285 0.789999 12.465 0.744999 12.6 0.969999C12.735 1.195 12.825 1.42 12.825 1.735Z" fill="white"/>
<path d="M12.825 1.915L13.0691 2.08937L13.125 2.01114V1.915H12.825ZM7.2 5.74L7.33586 6.00748L7.33729 6.00674L7.2 5.74ZM12.78 16.09L12.607 16.3352L12.6136 16.3396L12.78 16.09ZM12.78 16.495L13.02 16.675L12.78 16.495ZM12.24 16.765V16.465H12.2321L12.2242 16.4654L12.24 16.765ZM5.715 12.985L5.89201 12.7428L5.89088 12.742L5.715 12.985ZM5.85 4.705L5.71456 4.43727L5.71042 4.43945L5.85 4.705ZM12.105 1.06L11.8553 0.893553L11.8519 0.898937L12.105 1.06ZM12.6 0.969999L12.3428 1.12435V1.12435L12.6 0.969999ZM12.525 1.735V1.915H13.125V1.735H12.525ZM12.5809 1.74063C12.275 2.16884 11.6698 2.70723 10.7377 3.34348C9.81201 3.97541 8.58616 4.68913 7.06271 5.47326L7.33729 6.00674C8.87384 5.21587 10.123 4.48959 11.076 3.83902C12.0227 3.19277 12.7 2.60616 13.0691 2.08937L12.5809 1.74063ZM7.06414 5.47253C5.64551 6.1931 4.56837 6.77106 3.84384 7.21034C3.48283 7.42922 3.19993 7.61929 3.00413 7.77977C2.90685 7.8595 2.82146 7.93965 2.75783 8.01947C2.70165 8.08994 2.625 8.2056 2.625 8.35H3.225C3.225 8.41566 3.19335 8.43568 3.22699 8.39348C3.25319 8.36062 3.30245 8.31104 3.38447 8.24382C3.54726 8.1104 3.80155 7.93765 4.15491 7.72341C4.85913 7.29644 5.91949 6.7269 7.33586 6.00747L7.06414 5.47253ZM2.625 8.35C2.625 8.45519 2.6655 8.54722 2.69963 8.61032C2.73711 8.67959 2.78761 8.7509 2.8451 8.82247C2.96042 8.96603 3.12588 9.13761 3.33526 9.3348C3.75551 9.73059 4.37957 10.2545 5.20312 10.9032C6.85181 12.2018 9.32059 14.0166 12.6071 16.3351L12.9529 15.8449C9.66941 13.5284 7.21069 11.7207 5.57438 10.4318C4.75543 9.78676 4.14761 9.27566 3.74662 8.89801C3.54537 8.70848 3.40286 8.55874 3.31287 8.44671C3.2677 8.39048 3.24121 8.35044 3.22736 8.32483C3.21017 8.29305 3.225 8.30669 3.225 8.35H2.625ZM12.6136 16.3396C12.6189 16.3432 12.6094 16.3382 12.5987 16.3203C12.5868 16.3004 12.5813 16.2777 12.5813 16.2588C12.5813 16.2425 12.5852 16.2385 12.5802 16.2503C12.5751 16.2621 12.5636 16.2835 12.54 16.315L13.02 16.675C13.1028 16.5646 13.1813 16.4218 13.1813 16.2588C13.1813 16.0697 13.078 15.9281 12.9464 15.8404L12.6136 16.3396ZM12.54 16.315C12.4617 16.4195 12.3706 16.465 12.24 16.465V17.065C12.5594 17.065 12.8283 16.9305 13.02 16.675L12.54 16.315ZM12.2242 16.4654C12.0778 16.4731 11.8325 16.4234 11.4653 16.2757C11.1062 16.1313 10.66 15.9055 10.1237 15.5943C9.05153 14.9721 7.64387 14.023 5.892 12.7428L5.538 13.2272C7.29613 14.512 8.72347 15.4754 9.82255 16.1132C10.3718 16.432 10.8454 16.6731 11.2414 16.8324C11.6294 16.9884 11.9747 17.0794 12.2558 17.0646L12.2242 16.4654ZM5.89088 12.742C4.1826 11.5057 2.90719 10.5321 2.06074 9.81928C1.63664 9.46214 1.32696 9.17608 1.12565 8.95888C1.02459 8.84984 0.957444 8.76517 0.917371 8.70295C0.870429 8.63006 0.885 8.62502 0.885 8.665H0.285C0.285 8.80623 0.353009 8.93478 0.412942 9.02783C0.479743 9.13155 0.572911 9.24516 0.685596 9.36674C0.911794 9.6108 1.24336 9.91536 1.67426 10.2782C2.53781 11.0054 3.8274 11.9893 5.53912 13.228L5.89088 12.742ZM0.885 8.665C0.885 8.5668 0.941799 8.40101 1.14518 8.15525C1.34327 7.9159 1.65154 7.63541 2.08125 7.31312C2.93948 6.66945 4.23901 5.89072 5.98958 4.97055L5.71042 4.43945C3.95099 5.36428 2.61802 6.16055 1.72125 6.83312C1.27346 7.16897 0.923608 7.48191 0.682944 7.77271C0.447576 8.05712 0.285 8.35819 0.285 8.665H0.885ZM5.98542 4.97269C7.89944 4.00443 9.39056 3.21384 10.4444 2.60194C10.9709 2.29622 11.393 2.03238 11.7058 1.81121C12.0053 1.59953 12.2437 1.40076 12.3581 1.22106L11.8519 0.898937C11.8088 0.96674 11.6647 1.10546 11.3595 1.32129C11.0676 1.52762 10.6628 1.78128 10.1431 2.08306C9.10444 2.68616 7.62556 3.47057 5.71458 4.4373L5.98542 4.97269ZM12.3546 1.22641C12.39 1.17341 12.4182 1.14247 12.4366 1.12638C12.4558 1.10959 12.4533 1.11854 12.4282 1.12355C12.4147 1.12626 12.3976 1.12708 12.3791 1.12379C12.3607 1.12052 12.3462 1.11416 12.3367 1.10842C12.3196 1.09819 12.3248 1.09438 12.3428 1.12435L12.8572 0.815651C12.7584 0.650869 12.5733 0.482641 12.3105 0.5352C12.1024 0.576818 11.9542 0.745304 11.8554 0.893591L12.3546 1.22641ZM12.3428 1.12435C12.4584 1.31711 12.525 1.489 12.525 1.735H13.125C13.125 1.351 13.0116 1.07289 12.8572 0.815649L12.3428 1.12435Z" fill="white" mask="url(#path-1-outside-1_93_1034)"/>
</svg>
