<svg width="53" height="18" viewBox="0 0 53 18" fill="none" xmlns="http://www.w3.org/2000/svg">
<path d="M14.0325 5.24C14.0125 4.92 14.0725 4.6 14.1725 4.28C14.3925 3.64 14.8325 3.32 15.4725 3.34C15.6925 3.32 15.8925 3.38 16.1125 3.52C16.5325 3.8 16.7525 4.32 16.7525 5.06C16.7725 5.36 16.7525 5.64 16.6525 5.94C16.4725 6.54 16.0525 6.84 15.4325 6.84C15.1925 6.86 14.9525 6.82 14.7325 6.7C14.2525 6.46 14.0125 5.98 14.0325 5.24ZM25.1575 5.24C25.1375 4.92 25.1975 4.6 25.2975 4.28C25.5175 3.64 25.9575 3.32 26.5975 3.34C26.8175 3.32 27.0175 3.38 27.2375 3.52C27.6575 3.8 27.8775 4.32 27.8775 5.06C27.8975 5.36 27.8775 5.64 27.7775 5.94C27.5975 6.54 27.1775 6.84 26.5575 6.84C26.3175 6.86 26.0775 6.82 25.8575 6.7C25.3775 6.46 25.1375 5.98 25.1575 5.24ZM36.2825 5.24C36.2625 4.92 36.3225 4.6 36.4225 4.28C36.6425 3.64 37.0825 3.32 37.7225 3.34C37.9425 3.32 38.1425 3.38 38.3625 3.52C38.7825 3.8 39.0025 4.32 39.0025 5.06C39.0225 5.36 39.0025 5.64 38.9025 5.94C38.7225 6.54 38.3025 6.84 37.6825 6.84C37.4425 6.86 37.2025 6.82 36.9825 6.7C36.5025 6.46 36.2625 5.98 36.2825 5.24Z" fill="white"/>
</svg>
