<svg width="26" height="4" viewBox="0 0 26 4" fill="none" xmlns="http://www.w3.org/2000/svg">
<path d="M0.0332324 2.24C0.0132324 1.92 0.0732324 1.6 0.173232 1.28C0.393232 0.64 0.833232 0.32 1.47323 0.34C1.69323 0.32 1.89323 0.38 2.11323 0.52C2.53323 0.8 2.75323 1.32 2.75323 2.06C2.77323 2.36 2.75323 2.64 2.65323 2.94C2.47323 3.54 2.05323 3.84 1.43323 3.84C1.19323 3.86 0.953232 3.82 0.733232 3.7C0.253232 3.46 0.0132324 2.98 0.0332324 2.24ZM11.1582 2.24C11.1382 1.92 11.1982 1.6 11.2982 1.28C11.5182 0.64 11.9582 0.32 12.5982 0.34C12.8182 0.32 13.0182 0.38 13.2382 0.52C13.6582 0.8 13.8782 1.32 13.8782 2.06C13.8982 2.36 13.8782 2.64 13.7782 2.94C13.5982 3.54 13.1782 3.84 12.5582 3.84C12.3182 3.86 12.0782 3.82 11.8582 3.7C11.3782 3.46 11.1382 2.98 11.1582 2.24ZM22.2832 2.24C22.2632 1.92 22.3232 1.6 22.4232 1.28C22.6432 0.64 23.0832 0.32 23.7232 0.34C23.9432 0.32 24.1432 0.38 24.3632 0.52C24.7832 0.8 25.0032 1.32 25.0032 2.06C25.0232 2.36 25.0032 2.64 24.9032 2.94C24.7232 3.54 24.3032 3.84 23.6832 3.84C23.4432 3.86 23.2032 3.82 22.9832 3.7C22.5032 3.46 22.2632 2.98 22.2832 2.24Z" fill="white"/>
</svg>
