<svg width="17" height="24" viewBox="0 0 17 24" fill="none" xmlns="http://www.w3.org/2000/svg">
<path d="M0.442752 12.5819L7.04213 19.1924L7.97923 20.1311C8.10433 20.2478 8.2698 20.3114 8.44077 20.3084C8.61173 20.3054 8.77486 20.236 8.89577 20.1149C9.01669 19.9937 9.08595 19.8303 9.08897 19.6591C9.09198 19.4878 9.02853 19.3221 8.91195 19.1968L2.31258 12.5863L1.37106 11.6476C1.24596 11.5309 1.08049 11.4673 0.909523 11.4703C0.738554 11.4733 0.575425 11.5427 0.454513 11.6638C0.333601 11.7849 0.26435 11.9483 0.261333 12.1196C0.258317 12.2909 0.321776 12.4566 0.438348 12.5819H0.442752Z" fill="white"/>
<path d="M15.573 11.6476L8.97361 18.2581L8.03649 19.1968C7.91992 19.3221 7.85646 19.4878 7.85948 19.6591C7.86249 19.8303 7.93176 19.9937 8.05267 20.1149C8.17358 20.236 8.3367 20.3054 8.50767 20.3084C8.67864 20.3114 8.8441 20.2478 8.9692 20.1311L15.5686 13.5206L16.5101 12.5819C16.6267 12.4566 16.6901 12.2909 16.6871 12.1196C16.6841 11.9483 16.6148 11.7849 16.4939 11.6638C16.373 11.5427 16.2099 11.4733 16.0389 11.4703C15.868 11.4673 15.7025 11.5309 15.5774 11.6476H15.573Z" fill="white"/>
<path d="M7.81201 0.661046V19.6507C7.81201 19.826 7.88154 19.9942 8.0053 20.1181C8.12906 20.2421 8.29692 20.3117 8.47195 20.3117C8.64698 20.3117 8.81482 20.2421 8.93859 20.1181C9.06235 19.9942 9.13189 19.826 9.13189 19.6507V0.661046C9.13189 0.485726 9.06235 0.317586 8.93859 0.193615C8.81482 0.0696452 8.64698 0 8.47195 0C8.29692 0 8.12906 0.0696452 8.0053 0.193615C7.88154 0.317586 7.81201 0.485726 7.81201 0.661046Z" fill="white"/>
<path d="M0.535186 23.0221H16.4089C16.5548 23.0094 16.6906 22.9424 16.7895 22.8343C16.8885 22.7262 16.9433 22.5848 16.9433 22.4382C16.9433 22.2915 16.8885 22.1502 16.7895 22.0421C16.6906 21.934 16.5548 21.867 16.4089 21.8542H0.535186C0.389322 21.867 0.253504 21.934 0.154559 22.0421C0.0556145 22.1502 0.000732422 22.2915 0.000732422 22.4382C0.000732422 22.5848 0.0556145 22.7262 0.154559 22.8343C0.253504 22.9424 0.389322 23.0094 0.535186 23.0221Z" fill="white"/>
</svg>
