<svg width="17" height="16" viewBox="0 0 17 16" fill="none" xmlns="http://www.w3.org/2000/svg">
<path id="Vector" d="M17 8.04879C17 6.51036 16.5343 5.00416 15.6582 3.70857C14.7822 2.41299 13.5323 1.38229 12.0567 0.738548C10.5812 0.0948036 8.9417 -0.135019 7.33246 0.0762976C5.72322 0.287614 4.21164 0.931216 2.97674 1.93088C1.74183 2.93055 0.835342 4.24441 0.364613 5.71685C-0.106115 7.18929 -0.121359 8.75864 0.320686 10.239C0.762732 11.7194 1.64355 13.0488 2.85882 14.0699C4.0741 15.0909 5.57292 15.7607 7.17778 16V10.38H5.01563V8.04879H7.174V6.27444C7.174 4.25802 8.44333 3.14308 10.3851 3.14308C11.0226 3.15153 11.6585 3.20414 12.2879 3.30049V5.28113H11.2162C10.1597 5.28113 9.83104 5.9024 9.83104 6.53797V8.04879H12.1884L11.8106 10.3752H9.82852V16C11.8277 15.6999 13.6483 14.7343 14.9629 13.2768C16.2774 11.8193 16.9998 9.96554 17 8.04879Z" fill="#BCBEC0"/>
</svg>
