<svg width="40" height="14" viewBox="0 0 40 14" fill="none" xmlns="http://www.w3.org/2000/svg">
<g clip-path="url(#clip0_80_496)">
<path d="M0.274321 8.62135C0.869584 7.71361 1.62202 6.91312 2.49822 6.25541L8.97716 1.46583C9.67398 0.953688 10.3486 0.0808928 11.2826 0.795002C11.7274 1.12681 12.0239 1.62452 12.4761 1.98518C12.9283 2.34584 13.2693 2.64159 13.677 2.95897C14.6192 3.73095 15.6518 4.39193 16.7534 4.92818C17.1503 5.07528 17.5595 5.18871 17.9765 5.2672C18.8773 5.4861 19.8078 5.56642 20.7341 5.50524C21.5679 5.46601 22.3883 5.28537 23.1582 4.97146C23.8715 4.59127 24.5402 4.13655 25.1523 3.61537L26.9166 2.30977L28.2138 1.35041C28.5326 1.11238 29.0293 0.571389 29.4296 0.520896C29.5275 0.50276 29.6281 0.50276 29.7261 0.520896C30.0433 0.58596 30.3348 0.738058 30.566 0.959198C30.7972 1.18034 30.9585 1.46127 31.0308 1.76878C31.0381 1.81177 31.0381 1.85564 31.0308 1.89863C31.013 1.93661 30.9878 1.9709 30.9566 1.99961C29.7854 3.29078 28.8365 5.19507 29.1405 6.96953C29.2517 7.61872 29.8818 7.9938 30.4377 8.27512C31.0673 8.54974 31.7494 8.69171 32.4392 8.69171C33.1291 8.69171 33.8112 8.54974 34.4408 8.27512C35.8108 7.64958 37.1315 6.92628 38.3919 6.11115C38.4336 6.08814 38.4785 6.07112 38.5253 6.06065C38.9849 6.00295 39.2666 6.93346 39.3481 7.2292C39.4297 7.52494 38.8811 7.95052 38.6958 8.16691C38.3993 8.50593 38.1028 8.83775 37.784 9.15513C37.1757 9.78554 36.5296 10.3805 35.8492 10.9368C34.6187 11.9394 33.188 12.9998 31.5274 13.1008C30.8434 13.1635 30.154 13.1465 29.4741 13.0503C28.3784 12.8965 27.3679 12.3883 26.6052 11.6076C26.1363 11.0837 25.792 10.4655 25.5971 9.79711C25.4983 9.46301 25.4361 9.11967 25.4117 8.77283C25.3855 8.30839 25.4381 7.84291 25.5674 7.3951C25.6564 7.00559 25.7231 6.34197 25.1968 6.25541C24.6526 6.26721 24.1291 6.46077 23.7142 6.80361C22.2858 7.64803 20.9027 8.5629 19.5703 9.54464C19.0514 9.93416 18.5325 10.3309 18.0877 10.7637C17.6281 11.1116 17.245 11.5458 16.9609 12.0404C16.9166 12.1543 16.8646 12.2651 16.8053 12.3722C16.5606 12.7401 15.8638 12.6031 15.4932 12.5165C15.0579 12.4001 14.6746 12.1464 14.4035 11.7952C13.2256 10.4226 11.89 9.18588 10.4227 8.10922C9.31816 7.30855 7.70213 6.19049 6.27142 6.85411C4.73559 7.54971 3.29804 8.43457 1.99413 9.48694C1.73468 9.70333 1.49005 9.92695 1.25283 10.1578C1.01562 10.3886 0.511539 10.1578 0.259498 9.94858C0.089982 9.77165 -0.00971075 9.54206 -0.0219219 9.30045C-0.0341331 9.05885 0.0419281 8.82084 0.192784 8.62857L0.274321 8.62135Z" fill="black"/>
</g>
<defs>
<clipPath id="clip0_80_496">
<rect width="39.3777" height="12.7025" fill="white" transform="translate(0 0.513672)"/>
</clipPath>
</defs>
</svg>
