<svg width="72" height="72" viewBox="0 0 72 72" fill="none" xmlns="http://www.w3.org/2000/svg">
<circle cx="36" cy="36" r="36" fill="#D9D9D9" fill-opacity="0.2"/>
<g clip-path="url(#clip0_80_1664)">
<path d="M41.19 33.5H26.54V39.6H36.16C35.2964 41.6586 33.7969 43.3869 31.8806 44.5322C29.9644 45.6775 27.732 46.1797 25.5099 45.9653C23.2878 45.7509 21.1926 44.8312 19.5306 43.3407C17.8687 41.8502 16.7272 39.8671 16.2731 37.6813C15.819 35.4956 16.0761 33.2219 17.0068 31.1927C17.9375 29.1636 19.493 27.4854 21.4458 26.4037C23.3986 25.3219 25.6463 24.8933 27.8601 25.1805C30.074 25.4678 32.1379 26.4557 33.75 28L38.67 24.34C36.0545 21.5175 32.5353 19.6973 28.7204 19.1937C24.9054 18.6902 21.0345 19.5351 17.7763 21.5823C14.5181 23.6296 12.0773 26.7506 10.8757 30.4062C9.67405 34.0618 9.78704 38.0223 11.1952 41.6034C12.6033 45.1845 15.2181 48.1613 18.5877 50.0194C21.9574 51.8775 25.8702 52.5003 29.6502 51.78C33.4302 51.0598 36.84 49.0418 39.2902 46.0748C41.7405 43.1077 43.0774 39.378 43.07 35.53C43.0657 34.8614 43.0223 34.1936 42.94 33.53L41.19 33.5Z" fill="white"/>
<path d="M58.2 32.95V27.43H53.9V32.95H48.38V37.25H53.9V42.77H58.2V37.25H63.72V32.95H58.2Z" fill="white"/>
</g>
<defs>
<clipPath id="clip0_80_1664">
<rect width="53.72" height="33.08" fill="white" transform="translate(10 19)"/>
</clipPath>
</defs>
</svg>
