<svg width="72" height="72" viewBox="0 0 72 72" fill="none" xmlns="http://www.w3.org/2000/svg">
<circle cx="36" cy="36" r="36" fill="#D9D9D9" fill-opacity="0.2"/>
<g clip-path="url(#clip0_80_1682)">
<path d="M59.72 20.84C59.9724 21.4586 60.0111 22.1438 59.83 22.7868C59.6488 23.4299 59.2582 23.9941 58.72 24.39L36.56 40.12L14.4 24.39C13.8618 23.9941 13.4712 23.4299 13.29 22.7868C13.1089 22.1438 13.1476 21.4586 13.4 20.84C13.2154 21.245 13.1199 21.6849 13.12 22.13V51.5C13.12 52.3284 13.4484 53.123 14.0332 53.7097C14.618 54.2964 15.4116 54.6274 16.24 54.63H56.99C57.8201 54.63 58.6163 54.3002 59.2032 53.7133C59.7902 53.1263 60.12 52.3301 60.12 51.5V22.13C60.0828 21.6759 59.9462 21.2355 59.72 20.84Z" fill="white"/>
<path d="M16.09 19C15.2616 19.0026 14.468 19.3336 13.8832 19.9203C13.2984 20.507 12.97 21.3016 12.97 22.13V51.5C12.97 52.3284 13.2984 53.123 13.8832 53.7097C14.468 54.2964 15.2616 54.6274 16.09 54.63H18.91V19H16.09Z" fill="black"/>
<path d="M16.0899 54.19C15.3773 54.1874 14.6946 53.9031 14.1907 53.3992C13.6868 52.8953 13.4025 52.2126 13.3999 51.5V22.13C13.3999 21.4166 13.6833 20.7324 14.1878 20.2279C14.6922 19.7234 15.3765 19.44 16.0899 19.44H18.4699V54.19H16.0899Z" fill="black"/>
<path d="M56.87 19H54.09V54.63H56.9C57.7301 54.63 58.5262 54.3002 59.1132 53.7132C59.7002 53.1263 60.03 52.3301 60.03 51.5V22.13C60.03 21.7164 59.948 21.3069 59.7889 20.9252C59.6297 20.5435 59.3965 20.1971 59.1026 19.9061C58.8088 19.615 58.4602 19.3851 58.077 19.2296C57.6937 19.0741 57.2835 18.996 56.87 19Z" fill="black"/>
<path d="M54.5 54.19V19.44H56.87C57.2236 19.4387 57.574 19.5074 57.901 19.6421C58.2279 19.7768 58.525 19.9749 58.7751 20.2249C59.0251 20.475 59.2232 20.7721 59.3579 21.099C59.4926 21.426 59.5613 21.7764 59.56 22.13V51.5C59.56 52.2134 59.2766 52.8976 58.7721 53.4021C58.2677 53.9066 57.5834 54.19 56.87 54.19H54.5Z" fill="black"/>
<path d="M59.4 20.25C58.9387 19.6149 58.2468 19.1859 57.4728 19.055C56.6989 18.9242 55.9044 19.1019 55.26 19.55L36.5 32.86L17.74 19.57C17.0955 19.1219 16.3011 18.9442 15.5271 19.075C14.7531 19.2059 14.0613 19.6349 13.6 20.27C13.1518 20.9145 12.9741 21.7089 13.105 22.4829C13.2358 23.2569 13.6649 23.9487 14.3 24.41L36.46 40.14L58.62 24.41C59.2735 23.9606 59.7225 23.2706 59.8686 22.491C60.0148 21.7114 59.8463 20.9057 59.4 20.25Z" fill="black"/>
<path d="M36.4999 39.31L36.3599 39.51L14.5499 24.04C14.0231 23.6416 13.6722 23.0537 13.5716 22.401C13.471 21.7482 13.6287 21.0819 14.0111 20.5434C14.3935 20.0049 14.9706 19.6366 15.6201 19.5165C16.2695 19.3964 16.9402 19.5339 17.4899 19.9L36.4899 33.4L55.4899 19.9C56.0391 19.5162 56.7174 19.3639 57.3779 19.4762C58.0385 19.5885 58.6283 19.9563 59.0199 20.5C59.2133 20.7708 59.3509 21.0774 59.4247 21.4018C59.4985 21.7263 59.5071 22.0622 59.4499 22.39C59.3466 23.0501 58.9873 23.6429 58.4499 24.04L36.6499 39.51L36.4999 39.31Z" fill="black"/>
<path d="M17.74 19.57L36.5 32.88L55.26 19.57C55.7408 19.2296 56.3112 19.0384 56.9 19.02H16.09C16.6822 19.0364 17.2563 19.2278 17.74 19.57Z" fill="white"/>
<g style="mix-blend-mode:multiply">
<path d="M44.52 54.63H56.87C57.7001 54.63 58.4962 54.3002 59.0832 53.7133C59.6702 53.1263 60 52.3301 60 51.5V22.25H59.93C59.8885 22.6735 59.7573 23.0834 59.5453 23.4524C59.3332 23.8213 59.045 24.141 58.7 24.39L36.54 40.12L15.09 24.92L44.52 54.63Z" fill="#E4E5E6"/>
</g>
<g style="mix-blend-mode:multiply">
<path d="M36.5399 40.12L18.9399 54.63V27.68L36.5399 40.12Z" fill="#EFF0F0"/>
</g>
</g>
<defs>
<clipPath id="clip0_80_1682">
<rect width="47" height="35.63" fill="white" transform="translate(13 19)"/>
</clipPath>
</defs>
</svg>
