<svg width="27" height="23" viewBox="0 0 27 23" fill="none" xmlns="http://www.w3.org/2000/svg">
<path d="M13.7733 6.34035C13.7733 6.32265 13.8169 6.27463 13.7733 6.34035L13.8529 6.21902C13.9506 6.07493 14.0508 5.93085 14.1536 5.7893C14.5005 5.30902 14.8681 4.84139 15.2561 4.39145C16.3201 3.1478 17.5459 1.95976 19.0031 1.16604C20.5117 0.341995 22.249 0.0791091 23.8064 0.946128C24.4163 1.26977 24.9523 1.71281 25.3815 2.24797C25.8106 2.78312 26.1239 3.39904 26.3018 4.05779C26.5948 5.27111 26.3815 6.55268 25.978 7.71797C25.4626 9.12761 24.761 10.4645 23.8912 11.6941C22.0922 14.3483 19.8666 16.7193 17.5434 18.9387C16.6593 19.7812 15.7513 20.6044 14.8192 21.4083C14.3515 21.8102 13.8298 22.1666 13.3852 22.6064C13.3632 22.6255 13.34 22.6432 13.3158 22.6595L13.7167 22.6292C12.5011 21.6686 11.3421 20.6348 10.2061 19.5959C7.85569 17.4683 5.71166 15.1301 3.8018 12.6117C2.85791 11.3743 2.05553 10.0383 1.40917 8.62796C0.895179 7.43992 0.496837 6.1356 0.584216 4.83634C0.661485 3.62412 1.21987 2.49028 2.13904 1.67918C2.79859 1.06658 3.61945 0.648007 4.50854 0.47091C5.31735 0.346774 6.14513 0.433946 6.90889 0.723685C8.50484 1.29496 9.86178 2.44003 11.0208 3.64324C11.806 4.46573 12.5203 5.35096 13.1565 6.28979C13.1899 6.34035 13.2258 6.3909 13.2567 6.44146C13.3955 6.65632 13.9249 6.44146 13.7707 6.18868C13.2949 5.45925 12.7658 4.76481 12.1876 4.11087C11.0774 2.82677 9.79495 1.60587 8.2761 0.799519C6.711 -0.0295836 4.90946 -0.317747 3.25184 0.43805C2.56716 0.738879 1.95078 1.17172 1.43916 1.71097C0.927548 2.25022 0.531094 2.88492 0.273253 3.57752C-0.631373 6.27968 0.879763 9.22198 2.32922 11.4515C4.12819 14.232 6.44116 16.6965 8.81837 18.9943C9.75726 19.8941 10.7193 20.7713 11.7044 21.6257C12.203 22.0554 12.6964 22.5053 13.2258 22.8895L13.2927 22.9451C13.3551 22.9799 13.4268 22.9954 13.4983 22.9895C13.5698 22.9836 13.6378 22.9567 13.6936 22.9123C14.9786 21.9012 16.207 20.7991 17.402 19.6818C19.8101 17.4372 22.1153 15.0333 24.0197 12.3513C24.9555 11.0793 25.7321 9.70104 26.3326 8.24627C26.8132 7.02284 27.1242 5.69577 26.9392 4.38134C26.8106 3.6241 26.5142 2.90395 26.0711 2.27193C25.628 1.63991 25.0489 1.11148 24.375 0.724104C23.7011 0.336727 22.9489 0.0998816 22.1715 0.0303532C21.3942 -0.0391753 20.6108 0.0603148 19.8769 0.321773C18.2064 0.915794 16.7929 2.07856 15.5825 3.3298C14.7594 4.18247 14.0139 5.10441 13.3543 6.08504C13.3132 6.14824 13.2695 6.21143 13.231 6.27463C13.1539 6.39343 13.2978 6.49454 13.4006 6.51223C13.473 6.52309 13.5471 6.51254 13.6135 6.48194C13.6798 6.45134 13.7354 6.40206 13.7733 6.34035Z" fill="white"/>
</svg>
