<svg width="27" height="23" viewBox="0 0 27 23" fill="none" xmlns="http://www.w3.org/2000/svg">
<path d="M13.7733 6.33107C13.7733 6.31337 13.8169 6.26535 13.7733 6.33107L13.8529 6.20974C13.9506 6.06566 14.1678 6.47262 14.2706 6.33107C14.6176 5.8508 14.8192 6.82277 16.5 6.1794C17.5434 5.78002 18.4197 5.62077 19.8769 4.82706C21.3855 4.00301 22.2563 4.64632 23.8912 2.26265C24.5011 2.58629 11.7792 7.1576 13.3543 6.07577C13.7835 6.61092 12.8635 7.78509 13.1565 8.99841C13.4494 10.2117 13.9018 11.4371 13.4983 12.6024C12.9829 14.0121 13.4983 15.4984 13.3543 16.9984C13.2927 20.1923 13.3543 16.9984 13.1565 19.5866C12.2724 20.4292 13.1565 19.5866 13.3543 20.9984C11.0208 21.6164 13.8298 22.1573 13.3852 22.5971C13.3632 22.6162 13.34 22.634 13.3158 22.6502L13.7167 22.6199C12.5011 21.6593 15.6359 12.0373 14.5 10.9984C12.1495 8.87082 7.6459 13.9606 5.73604 11.4422C4.79215 10.2047 6.38239 8.90873 5.73604 7.49841C5.22205 6.31037 7.41262 9.53626 7.5 8.23699C7.57727 7.02478 7.35693 11.8095 8.2761 10.9984C8.93565 10.3858 7.38701 6.25286 8.2761 6.07577C9.08491 5.95163 2.73624 2.70867 3.5 2.99841C5.09595 3.56968 4.57699 13.7952 5.73604 14.9984C6.5212 15.8209 16 17.9984 13.1565 6.28051C13.1899 6.33107 13.2258 6.38162 13.2567 6.43218C13.3955 6.64704 13.9249 6.43218 13.7707 6.1794C13.2949 5.44997 12.7658 4.75554 12.1876 4.10159C11.0774 2.8175 9.79495 1.59659 8.2761 0.790241C6.711 -0.038861 4.90946 -0.327025 3.25184 0.428773C2.56716 0.729601 1.95078 1.16244 1.43916 1.70169C0.927548 2.24094 0.531094 2.87564 0.273253 3.56824C-0.631373 6.2704 0.879764 9.2127 2.32922 11.4422C4.12819 14.2227 6.44116 16.6873 8.81837 18.985C9.75726 19.8849 10.7193 20.762 11.7044 21.6164C12.203 22.0461 12.6964 22.496 13.2258 22.8803L13.2927 22.9359C13.3551 22.9706 13.4268 22.9861 13.4983 22.9802C13.5698 22.9744 13.6378 22.9475 13.6936 22.903C14.9786 21.8919 16.207 20.7898 17.402 19.6725C19.8101 17.4279 22.1153 15.024 24.0197 12.3421C24.9555 11.0701 25.7321 9.69176 26.3326 8.23699C26.8132 7.01356 27.1242 5.68649 26.9392 4.37206C26.8106 3.61482 26.5142 2.89467 26.0711 2.26265C25.628 1.63063 25.0489 1.1022 24.375 0.714826C23.7011 0.32745 22.9489 0.0906043 22.1715 0.0210758C21.3942 -0.0484526 20.6108 0.0510374 19.8769 0.312496C18.2064 0.906517 16.7929 2.06928 15.5825 3.32052C14.7594 4.17319 14.0139 5.09513 13.3543 6.07577C13.3132 6.13896 13.195 6.14654 13.1565 6.20974C13.0794 6.32854 13.3972 7.48072 13.5 7.49841C13.5724 7.50927 13.5471 6.50327 13.6135 6.47267C13.6798 6.44207 13.7354 6.39279 13.7733 6.33107Z" fill="white"/>
</svg>
