<svg width="19" height="19" viewBox="0 0 19 19" fill="none" xmlns="http://www.w3.org/2000/svg">
<g id="Group 11">
<path id="Vector" d="M9.5 19C14.7467 19 19 14.7467 19 9.5C19 4.25329 14.7467 0 9.5 0C4.2533 0 0 4.25329 0 9.5C0 14.7467 4.2533 19 9.5 19Z" fill="#BCBEC0"/>
<path id="Vector_2" d="M9.50011 4.59522C11.0975 4.59522 11.2861 4.60226 11.9166 4.63041C12.2962 4.63502 12.6723 4.70451 13.0285 4.83589C13.2875 4.93291 13.5219 5.08571 13.7153 5.28344C13.914 5.47658 14.0669 5.71173 14.1629 5.97167C14.2948 6.32721 14.3643 6.70289 14.3683 7.08211C14.3979 7.71263 14.4035 7.90263 14.4035 9.50004C14.4035 11.0974 14.4035 11.286 14.3683 11.9166C14.3643 12.2958 14.2948 12.6715 14.1629 13.027C14.0634 13.2849 13.9111 13.5192 13.7157 13.7148C13.5204 13.9104 13.2863 14.063 13.0285 14.1628C12.6723 14.2942 12.2962 14.3636 11.9166 14.3683C11.2861 14.3964 11.0975 14.4034 9.50011 14.4034C7.9027 14.4034 7.71411 14.3964 7.0836 14.3683C6.70397 14.3636 6.32793 14.2942 5.97174 14.1628C5.71394 14.063 5.47985 13.9104 5.2845 13.7148C5.08914 13.5192 4.93684 13.2849 4.83737 13.027C4.7054 12.6715 4.63588 12.2958 4.63189 11.9166C4.60233 11.286 4.5967 11.096 4.5967 9.50004C4.5967 7.90404 4.5967 7.71263 4.63189 7.08211C4.63588 6.70289 4.7054 6.32721 4.83737 5.97167C4.93332 5.71173 5.08625 5.47658 5.28493 5.28344C5.47828 5.08571 5.71276 4.93291 5.97174 4.83589C6.32793 4.70451 6.70397 4.63502 7.0836 4.63041C7.71411 4.60226 7.9027 4.59522 9.50011 4.59522ZM9.50011 3.51855C7.87596 3.51855 7.67048 3.51855 7.03433 3.55374C6.53777 3.56491 6.04667 3.66008 5.58189 3.83522C5.18439 3.98865 4.8234 4.22356 4.52211 4.52485C4.22083 4.82614 3.98591 5.18713 3.83248 5.58463C3.65681 6.04878 3.56162 6.5395 3.551 7.03567C3.52144 7.67463 3.5144 7.88011 3.5144 9.50285C3.5144 11.1256 3.51441 11.3325 3.551 11.9686C3.56184 12.4652 3.65702 12.9564 3.83248 13.4211C3.98623 13.8182 4.22127 14.1789 4.52253 14.4799C4.82378 14.7809 5.18461 15.0156 5.58189 15.1691C6.04648 15.3449 6.53769 15.4401 7.03433 15.4506C7.67189 15.4801 7.87878 15.4871 9.50011 15.4871C11.1214 15.4871 11.3297 15.4801 11.9659 15.4506C12.4625 15.4401 12.9537 15.3449 13.4183 15.1691C13.8156 15.0156 14.1764 14.7809 14.4777 14.4799C14.779 14.1789 15.014 13.8182 15.1677 13.4211C15.3432 12.9564 15.4384 12.4652 15.4492 11.9686C15.4788 11.3311 15.4858 11.1242 15.4858 9.50285C15.4858 7.88152 15.4858 7.67322 15.4492 7.03567C15.4386 6.5395 15.3434 6.04878 15.1677 5.58463C15.0143 5.18713 14.7794 4.82614 14.4781 4.52485C14.1768 4.22356 13.8158 3.98865 13.4183 3.83522C12.9535 3.66008 12.4625 3.56491 11.9659 3.55374C11.3283 3.52418 11.1214 3.51855 9.50011 3.51855Z" fill="#414141"/>
<path id="Vector_3" d="M9.50005 6.42761C8.89233 6.42733 8.29818 6.60729 7.79275 6.94472C7.28732 7.28214 6.8933 7.76188 6.66054 8.32326C6.42779 8.88464 6.36675 9.50244 6.48513 10.0985C6.60352 10.6946 6.89602 11.2422 7.32564 11.672C7.75527 12.1018 8.30271 12.3946 8.89873 12.5132C9.49475 12.6319 10.1126 12.5711 10.6741 12.3386C11.2355 12.1061 11.7155 11.7123 12.0531 11.207C12.3908 10.7018 12.571 10.1077 12.571 9.49999C12.5712 9.09658 12.4919 8.69709 12.3377 8.32434C12.1834 7.9516 11.9572 7.61289 11.672 7.32758C11.3869 7.04226 11.0483 6.81593 10.6756 6.66151C10.3029 6.50709 9.90345 6.42761 9.50005 6.42761ZM9.50005 11.4943C9.10555 11.4943 8.71992 11.3773 8.39193 11.1581C8.06394 10.9389 7.80832 10.6273 7.65742 10.2628C7.50652 9.89835 7.46711 9.49729 7.54418 9.1104C7.62124 8.7235 7.81132 8.36816 8.09036 8.08931C8.36941 7.81045 8.72489 7.62063 9.11184 7.54384C9.49879 7.46704 9.89982 7.50674 10.2642 7.6579C10.6286 7.80906 10.94 8.06489 11.1589 8.39304C11.3779 8.72118 11.4946 9.1069 11.4943 9.50139C11.4936 10.0298 11.2832 10.5364 10.9092 10.9098C10.5353 11.2831 10.0285 11.4929 9.50005 11.4929V11.4943Z" fill="#414141"/>
<path id="Vector_4" d="M12.6934 7.02442C13.0898 7.02442 13.4111 6.70306 13.4111 6.30665C13.4111 5.91023 13.0898 5.58887 12.6934 5.58887C12.297 5.58887 11.9756 5.91023 11.9756 6.30665C11.9756 6.70306 12.297 7.02442 12.6934 7.02442Z" fill="#414141"/>
</g>
</svg>
