<svg width="30" height="10" viewBox="0 0 30 10" fill="none" xmlns="http://www.w3.org/2000/svg">
<g clip-path="url(#clip0_170_50)">
<path d="M0.20281 6.32924C0.643028 5.65794 1.19948 5.06595 1.84746 4.57955L6.63886 1.03748C7.15419 0.658738 7.65306 0.0132749 8.34381 0.541384C8.67274 0.786768 8.89203 1.15484 9.22644 1.42156C9.56085 1.68828 9.81303 1.907 10.1145 2.14171C10.8113 2.71262 11.575 3.20144 12.3896 3.59801C12.6832 3.7068 12.9858 3.79068 13.2942 3.84873C13.9604 4.01061 14.6485 4.07001 15.3336 4.02477C15.9502 3.99576 16.5569 3.86216 17.1262 3.63002C17.6538 3.34885 18.1483 3.01257 18.6009 2.62714L19.9057 1.66161L20.8651 0.95213C21.1008 0.776093 21.4681 0.376014 21.7641 0.338673C21.8366 0.32526 21.911 0.32526 21.9834 0.338673C22.218 0.38679 22.4336 0.499272 22.6045 0.662812C22.7755 0.826352 22.8948 1.03411 22.9483 1.26153C22.9537 1.29332 22.9537 1.32576 22.9483 1.35755C22.9351 1.38564 22.9165 1.411 22.8935 1.43223C22.0273 2.3871 21.3256 3.79539 21.5503 5.10766C21.6326 5.58776 22.0985 5.86515 22.5097 6.07319C22.9753 6.27628 23.4797 6.38128 23.9899 6.38128C24.5001 6.38128 25.0045 6.27628 25.4701 6.07319C26.4833 5.61058 27.4599 5.07568 28.3921 4.47286C28.4229 4.45584 28.4562 4.44326 28.4907 4.43551C28.8306 4.39284 29.0389 5.08099 29.0993 5.2997C29.1596 5.51841 28.7539 5.83314 28.6168 5.99317C28.3975 6.24389 28.1783 6.48928 27.9425 6.72399C27.4926 7.1902 27.0148 7.63017 26.5117 8.0416C25.6016 8.78308 24.5436 9.56725 23.3156 9.64193C22.8097 9.68831 22.2999 9.67577 21.797 9.60458C20.9868 9.49083 20.2395 9.11502 19.6754 8.5377C19.3286 8.15025 19.074 7.69305 18.9299 7.19876C18.8568 6.95168 18.8109 6.69777 18.7928 6.44127C18.7734 6.09779 18.8123 5.75356 18.9079 5.42239C18.9737 5.13433 19.0231 4.64356 18.6338 4.57955C18.2314 4.58827 17.8442 4.73142 17.5374 4.98496C16.4811 5.60944 15.4582 6.28602 14.4729 7.01205C14.0891 7.30011 13.7054 7.5935 13.3764 7.91357C13.0365 8.17088 12.7532 8.49195 12.5431 8.85777C12.5104 8.94194 12.4719 9.02391 12.428 9.10314C12.2471 9.3752 11.7318 9.27385 11.4577 9.20984C11.1358 9.12376 10.8523 8.93613 10.6518 8.6764C9.78072 7.66133 8.79297 6.74673 7.70788 5.9505C6.89104 5.35838 5.69593 4.53154 4.63788 5.02231C3.50207 5.53673 2.43895 6.19111 1.47467 6.96937C1.28279 7.1294 1.10188 7.29478 0.926455 7.46548C0.751026 7.63618 0.378241 7.46547 0.191848 7.31077C0.0664852 7.17993 -0.00724106 7.01013 -0.0162717 6.83146C-0.0253022 6.65279 0.0309477 6.47677 0.142511 6.33458L0.20281 6.32924Z" fill="white"/>
</g>
<defs>
<clipPath id="clip0_170_50">
<rect width="29.1212" height="9.39394" fill="white" transform="translate(0 0.333344)"/>
</clipPath>
</defs>
</svg>
