<svg width="31" height="29" viewBox="0 0 31 29" fill="none" xmlns="http://www.w3.org/2000/svg">
<rect x="1" y="1" width="29" height="22.3871" rx="4" stroke="#BCBEC0" stroke-width="2"/>
<path d="M22.7941 18.9677L18.2353 23.4839L22.7941 28" stroke="#BCBEC0" stroke-width="2"/>
<mask id="path-3-outside-1_26_526" maskUnits="userSpaceOnUse" x="11" y="5" width="7" height="12" fill="black">
<rect fill="white" x="11" y="5" width="7" height="12"/>
<path d="M15.3371 14.93L15.3171 9.03C15.3071 8.3 15.2671 7.87 15.2171 7.73C15.1671 7.62 15.1171 7.56 15.0671 7.54C14.5271 8.58 13.9771 9.28 13.4071 9.63L12.8071 9.49C13.4471 9.2 14.4271 8.21 15.7371 6.54C16.0771 6.85 16.2671 7.12 16.3171 7.33C16.3871 7.6 16.4271 7.94 16.4271 8.36V16.19H17.4171V16.35H14.0771V16.19H14.3271C14.4971 16.19 14.6671 16.14 14.8371 16.03C15.1671 15.82 15.3371 15.46 15.3371 14.93Z"/>
</mask>
<path d="M15.3371 14.93L15.3171 9.03C15.3071 8.3 15.2671 7.87 15.2171 7.73C15.1671 7.62 15.1171 7.56 15.0671 7.54C14.5271 8.58 13.9771 9.28 13.4071 9.63L12.8071 9.49C13.4471 9.2 14.4271 8.21 15.7371 6.54C16.0771 6.85 16.2671 7.12 16.3171 7.33C16.3871 7.6 16.4271 7.94 16.4271 8.36V16.19H17.4171V16.35H14.0771V16.19H14.3271C14.4971 16.19 14.6671 16.14 14.8371 16.03C15.1671 15.82 15.3371 15.46 15.3371 14.93Z" fill="#D9D9D9"/>
<path d="M15.3371 14.93H15.8371L15.8371 14.9283L15.3371 14.93ZM15.3171 9.03L15.8171 9.02831L15.8171 9.02315L15.3171 9.03ZM15.2171 7.73L15.688 7.56183L15.6809 7.54214L15.6723 7.5231L15.2171 7.73ZM15.0671 7.54L15.2528 7.07576L14.8321 6.9075L14.6234 7.30959L15.0671 7.54ZM13.4071 9.63L13.2935 10.1169L13.4936 10.1636L13.6687 10.0561L13.4071 9.63ZM12.8071 9.49L12.6007 9.03457L11.2595 9.64232L12.6935 9.97692L12.8071 9.49ZM15.7371 6.54L16.074 6.17052L15.6761 5.80771L15.3437 6.2314L15.7371 6.54ZM16.3171 7.33L15.8306 7.44583L15.8331 7.45548L16.3171 7.33ZM16.4271 16.19H15.9271V16.69H16.4271V16.19ZM17.4171 16.19H17.9171V15.69H17.4171V16.19ZM17.4171 16.35V16.85H17.9171V16.35H17.4171ZM14.0771 16.35H13.5771V16.85H14.0771V16.35ZM14.0771 16.19V15.69H13.5771V16.19H14.0771ZM14.8371 16.03L14.5687 15.6082L14.5655 15.6102L14.8371 16.03ZM15.8371 14.9283L15.8171 9.02831L14.8171 9.03169L14.8371 14.9317L15.8371 14.9283ZM15.8171 9.02315C15.812 8.65161 15.7992 8.34963 15.7805 8.11842C15.7634 7.90777 15.7382 7.70235 15.688 7.56183L14.7462 7.89817C14.7461 7.89765 14.7658 7.97723 14.7837 8.19908C14.8 8.40037 14.8122 8.67839 14.8172 9.03685L15.8171 9.02315ZM15.6723 7.5231C15.6152 7.39754 15.4965 7.17325 15.2528 7.07576L14.8814 8.00424C14.8004 7.97182 14.7601 7.92414 14.7517 7.9136C14.7423 7.90193 14.7474 7.90484 14.7619 7.9369L15.6723 7.5231ZM14.6234 7.30959C14.0962 8.32488 13.598 8.92606 13.1455 9.20391L13.6687 10.0561C14.3562 9.63394 14.958 8.83512 15.5109 7.77041L14.6234 7.30959ZM13.5207 9.14308L12.9207 9.00308L12.6935 9.97692L13.2935 10.1169L13.5207 9.14308ZM13.0135 9.94543C13.4202 9.76115 13.878 9.3863 14.3758 8.8847C14.8834 8.37318 15.4692 7.69166 16.1305 6.8486L15.3437 6.2314C14.695 7.05834 14.1358 7.70682 13.666 8.1803C13.1862 8.6637 12.8341 8.92885 12.6007 9.03457L13.0135 9.94543ZM15.4002 6.90948C15.5525 7.0483 15.6601 7.16828 15.7313 7.26636C15.8049 7.36762 15.8262 7.42709 15.8307 7.44581L16.8035 7.21419C16.7172 6.85182 16.4313 6.49632 16.074 6.17052L15.4002 6.90948ZM15.8331 7.45548C15.8897 7.67374 15.9271 7.96955 15.9271 8.36H16.9271C16.9271 7.91045 16.8845 7.52626 16.8011 7.20452L15.8331 7.45548ZM15.9271 8.36V16.19H16.9271V8.36H15.9271ZM16.4271 16.69H17.4171V15.69H16.4271V16.69ZM16.9171 16.19V16.35H17.9171V16.19H16.9171ZM17.4171 15.85H14.0771V16.85H17.4171V15.85ZM14.5771 16.35V16.19H13.5771V16.35H14.5771ZM14.0771 16.69H14.3271V15.69H14.0771V16.69ZM14.3271 16.69C14.6019 16.69 14.8652 16.6074 15.1087 16.4498L14.5655 15.6102C14.469 15.6726 14.3923 15.69 14.3271 15.69V16.69ZM15.1055 16.4518C15.6228 16.1227 15.8371 15.5728 15.8371 14.93H14.8371C14.8371 15.3472 14.7114 15.5173 14.5687 15.6082L15.1055 16.4518Z" fill="#D9D9D9" mask="url(#path-3-outside-1_26_526)"/>
</svg>
