<svg width="1194" height="341" viewBox="0 0 1194 341" fill="none" xmlns="http://www.w3.org/2000/svg">
<path d="M255.896 255C255.146 179.75 254.646 132.5 254.646 113.75C254.646 102 250.896 94.25 243.146 90.75C239.146 89 235.146 88.25 231.396 89C219.146 90.75 210.396 99 205.396 113.5C202.896 120.75 201.646 128 201.646 135V273H218.396V276.75H160.146V273H167.396C169.146 273.25 171.146 272.5 172.896 271.25C176.646 268.5 178.396 263.25 178.396 255.5V128.25C178.896 124.5 178.396 120.75 176.646 117C173.396 109.5 166.646 105.75 156.396 105.75V103.5C160.396 103.75 165.146 101 170.896 95.25C177.396 88.75 182.646 85 186.896 83.75C195.646 91 200.396 101.5 201.646 115.25C203.146 107.75 207.396 100.5 214.146 93.25C221.896 85.25 230.396 81 239.646 80.25C257.896 78.75 269.646 84.75 275.146 98C277.896 104.5 278.896 111.25 278.146 118.25C281.646 100.75 290.146 89 303.396 83C310.146 80.25 316.396 79 322.146 79.5C336.896 79.5 347.146 85.75 352.396 98C354.896 104.25 355.896 110.5 355.646 116.75V257.25C355.646 265 357.647 270.5 361.646 273.5C363.397 275 365.396 275.75 367.396 275.75C361.646 278.5 356.896 278.25 353.146 275.25C351.396 274 350.146 272.25 349.396 270.25C342.647 285 331.896 294.75 316.646 299.5C315.396 299.75 315.146 299.5 315.896 298.75C328.146 291.25 333.646 274 332.646 247C332.896 185.25 332.896 142 332.646 116.75C332.646 101.5 328.146 92.25 319.146 89C314.396 87.25 309.896 87 305.396 88.25C293.396 91 285.396 101.25 281.146 118.75C279.146 127.5 278.396 136 278.646 144.25V273H295.396V276.75H237.146V273H244.396C246.396 273.25 248.396 272.5 250.146 271C253.896 268.25 255.896 262.75 255.896 255ZM381.914 244V133.75C381.914 119.75 378.664 111 371.914 107.75C368.664 106 365.164 105.5 361.914 106.75V104.5C363.914 104.25 367.664 101.5 372.914 96.25C378.914 90.5 383.914 86.5 388.164 84.5C399.414 90.25 405.164 103.25 405.164 123V230.25C403.914 243.5 406.164 254.75 411.914 263.75C418.664 275 428.664 277.75 441.914 272C457.414 265.25 466.914 249.5 470.164 224.75V105.5C470.914 98 467.164 94.25 459.164 94.25H452.664V90.5H493.414V273H510.914V276.75H493.164C482.664 276.75 474.914 280 470.164 286.75V241.5C465.414 255.75 457.914 266.5 447.414 274.25C436.164 282.5 423.164 285.25 408.414 282.75C396.164 281.25 388.164 274.25 384.164 262C382.164 255.75 381.414 249.75 381.914 244ZM573.355 157.25L572.605 155C585.355 147.75 591.855 139.25 592.605 129C593.355 115 587.355 106 574.605 102C562.855 98.25 551.605 99.5 540.855 105.75C532.105 110.5 525.605 118.25 521.355 129C515.605 144.75 518.105 157.25 529.355 166.75C537.105 173.25 550.105 179 568.855 184C577.105 185.75 585.105 189.25 593.355 194.5C609.855 204.75 618.105 218.25 618.105 235C618.355 240.75 617.105 246.75 614.355 253C608.605 265.75 597.605 273.75 581.355 277.5C570.105 281.75 554.605 280 534.855 272.5C532.605 271.25 530.105 270.75 527.855 271C523.355 271.25 521.105 274.5 521.105 280.75H518.605V211H521.105C520.605 219.5 521.855 228.5 524.855 238C530.605 257 542.105 269.25 559.105 274.75C570.105 277.75 579.105 276 586.105 269.25C591.355 264.25 594.105 257.75 594.605 249.75C595.355 242 593.855 235.5 590.105 230.25C585.855 223.75 579.355 218.25 570.355 213.5C547.105 203.75 531.105 192.25 522.355 179.5C518.605 175.25 516.105 169 514.605 161C511.605 145 515.605 127.75 526.605 109.25C529.355 105 531.355 100.5 532.605 96.25C535.605 87.75 534.105 83.75 527.855 84.5C531.855 82.25 535.855 81 539.605 80.75C546.855 80.5 549.605 85.5 547.605 96C554.855 90.75 564.355 87.5 575.855 86.25C591.855 84.5 603.855 89 611.605 99.75C614.855 105.25 615.605 111.75 613.855 119.5C610.605 134.5 597.105 147 573.355 157.25ZM774.457 206.25H776.207C775.207 216.75 771.957 227.5 766.707 238.75C755.707 261 738.707 274.25 715.707 278C707.707 279.5 698.707 279.25 688.707 277C668.457 272.75 652.457 261.5 641.207 243C622.707 212 620.457 177.5 634.207 139.25C644.707 114.75 661.957 98.75 685.707 91.25C709.457 83.75 732.707 86.5 755.457 99.75C759.207 102 762.957 102.25 766.207 100.75L766.957 102.5C763.207 103.75 759.457 108 755.707 115.5C754.457 119.25 751.957 122.75 747.957 126.5C739.707 133.75 728.457 137.5 713.957 137.5L638.457 137.75C628.707 160.5 629.707 183.25 641.707 205.5C653.207 227.25 670.457 241.25 693.707 247.75C703.457 250 713.957 250.25 725.457 248C748.707 243.5 764.957 229.5 774.457 206.25ZM732.707 111.5C718.707 98.5 701.707 95 681.457 100.75C662.207 106.5 648.457 117.75 639.957 135H717.957C730.707 135.25 737.457 131.75 737.707 124.5C738.957 120.5 737.207 116.25 732.707 111.5ZM853.271 85.5C876.271 81.25 895.771 86 912.021 99.5C933.021 116.75 943.521 142.25 943.771 176.5C943.521 200.75 938.271 221.5 927.521 239C918.771 253.25 906.771 263.75 891.271 270.5C876.271 277.25 860.521 279.5 844.271 277.25C808.771 272.5 786.771 252.5 778.021 216.75C769.771 183 775.771 151.75 796.521 122.5C793.771 123.75 790.521 124.25 787.271 124.25C781.021 124.25 777.021 121 775.271 114.75C773.521 109 774.771 104 778.771 99.5C783.521 94 791.021 93.25 801.021 97.5C799.021 97.5 797.271 99 795.771 101.75C794.021 104.75 794.271 107.25 796.021 109C799.271 111.5 802.521 112 805.771 110.25C835.521 94 851.521 85.75 853.271 85.5ZM804.021 120C787.771 139.5 782.271 161.75 787.521 186.75C792.771 211.75 807.021 230 830.271 241.75C853.271 253.25 876.521 254.25 899.771 244.75C914.021 238.5 924.521 228 931.771 213C938.521 199.25 941.271 184 940.021 167.5C940.021 159.25 937.771 150.5 933.021 141C923.521 121.75 906.771 108.25 883.021 100.5C875.021 97.75 865.771 96.5 855.021 96.75C833.771 97.5 816.771 105.25 804.021 120ZM1001.82 157.25L1001.07 155C1013.82 147.75 1020.32 139.25 1021.07 129C1021.82 115 1015.82 106 1003.07 102C991.322 98.25 980.072 99.5 969.322 105.75C960.572 110.5 954.072 118.25 949.822 129C944.072 144.75 946.572 157.25 957.822 166.75C965.572 173.25 978.572 179 997.322 184C1005.57 185.75 1013.57 189.25 1021.82 194.5C1038.32 204.75 1046.57 218.25 1046.57 235C1046.82 240.75 1045.57 246.75 1042.82 253C1037.07 265.75 1026.07 273.75 1009.82 277.5C998.572 281.75 983.072 280 963.322 272.5C961.072 271.25 958.572 270.75 956.322 271C951.822 271.25 949.572 274.5 949.572 280.75H947.072V211H949.572C949.072 219.5 950.322 228.5 953.322 238C959.072 257 970.572 269.25 987.572 274.75C998.572 277.75 1007.57 276 1014.57 269.25C1019.82 264.25 1022.57 257.75 1023.07 249.75C1023.82 242 1022.32 235.5 1018.57 230.25C1014.32 223.75 1007.82 218.25 998.822 213.5C975.572 203.75 959.572 192.25 950.822 179.5C947.072 175.25 944.572 169 943.072 161C940.072 145 944.072 127.75 955.072 109.25C957.822 105 959.822 100.5 961.072 96.25C964.072 87.75 962.572 83.75 956.322 84.5C960.322 82.25 964.322 81 968.072 80.75C975.322 80.5 978.072 85.5 976.072 96C983.322 90.75 992.822 87.5 1004.32 86.25C1020.32 84.5 1032.32 89 1040.07 99.75C1043.32 105.25 1044.07 111.75 1042.32 119.5C1039.07 134.5 1025.57 147 1001.82 157.25Z" fill="white"/>
<rect x="136" y="157" width="920" height="61" fill="black"/>
<path d="M36.676 187.06H36.816C36.736 187.9 36.476 188.76 36.056 189.66C35.176 191.44 33.816 192.5 31.976 192.8C31.336 192.92 30.616 192.9 29.816 192.72C28.196 192.38 26.916 191.48 26.016 190C24.536 187.52 24.356 184.76 25.456 181.7C26.296 179.74 27.676 178.46 29.576 177.86C31.476 177.26 33.336 177.48 35.156 178.54C35.456 178.72 35.756 178.74 36.016 178.62L36.076 178.76C35.776 178.86 35.476 179.2 35.176 179.8C35.076 180.1 34.876 180.38 34.556 180.68C33.896 181.26 32.996 181.56 31.836 181.56L25.796 181.58C25.016 183.4 25.096 185.22 26.056 187C26.976 188.74 28.356 189.86 30.216 190.38C30.996 190.56 31.836 190.58 32.756 190.4C34.616 190.04 35.916 188.92 36.676 187.06ZM33.336 179.48C32.216 178.44 30.856 178.16 29.236 178.62C27.696 179.08 26.596 179.98 25.916 181.36H32.156C33.176 181.38 33.716 181.1 33.736 180.52C33.836 180.2 33.696 179.86 33.336 179.48ZM89.4298 192.4H90.9298V192.7H86.0098V192.4H86.5298C86.7098 192.42 86.8898 192.36 87.0698 192.24C87.4098 192 87.5898 191.56 87.5898 190.92V180.76C87.6098 180.44 87.5498 180.12 87.3898 179.82C87.0898 179.2 86.4898 178.88 85.6298 178.88V178.68C86.0298 178.68 86.4698 178.44 86.9498 177.98C87.4898 177.44 87.9098 177.12 88.1898 177.02C88.9898 177.38 89.3898 178.14 89.4098 179.32L89.4298 180.54C89.5698 180 89.8298 179.44 90.2098 178.88C90.9498 177.76 91.9298 177.16 93.1498 177.06C93.7498 176.96 94.3498 177 94.9498 177.18C96.1498 177.52 96.7498 178.34 96.7498 179.64V191.26C96.7298 191.92 96.9098 192.52 97.3298 193.04C96.7098 192.94 96.3698 192.7 96.3098 192.32C96.2098 193.26 95.3298 194.1 93.6298 194.86C94.4498 193.98 94.8498 192.8 94.8498 191.34V180.3C94.9098 179.78 94.8498 179.28 94.6898 178.8C94.3498 177.84 93.6298 177.44 92.5298 177.62C92.0498 177.68 91.5698 177.96 91.0698 178.42C90.0698 179.32 89.5298 180.76 89.4298 182.7V192.4ZM154.228 190.86C154.408 191.36 154.388 191.84 154.168 192.3C153.968 192.72 153.628 193.08 153.148 193.36C152.028 193.98 150.928 193.92 149.868 193.22C148.848 192.42 148.408 191.48 148.568 190.38L147.528 190.7C148.248 189.18 148.608 187.78 148.608 186.48V178.8H147.228V178.64C147.908 178.6 148.348 178.38 148.568 178V174.76C148.128 174.14 147.588 173.82 146.968 173.82V173.56C148.388 173.66 149.568 173.04 150.508 171.66V178.12H153.628L153.288 178.8H150.508V191.02C150.488 191.56 150.548 192.06 150.688 192.52C151.008 193.46 151.648 193.74 152.588 193.38C153.288 193.2 153.688 192.6 153.808 191.62C153.828 191.36 153.788 191.14 153.688 190.94C153.508 190.52 153.168 190.42 152.688 190.64C152.848 190.5 153.028 190.4 153.228 190.36C153.648 190.26 153.968 190.42 154.228 190.86ZM204.089 171.98V171.7C204.669 171.6 205.129 171.38 205.489 171C205.929 170.56 206.289 170.28 206.549 170.16C207.469 170.52 207.929 171.28 207.909 172.46L207.809 180.86C207.949 180.32 208.209 179.76 208.589 179.18C209.329 178.04 210.309 177.44 211.529 177.34C212.129 177.26 212.729 177.3 213.309 177.48C214.489 177.84 215.089 178.68 215.089 179.98V191.2C215.069 191.86 215.249 192.46 215.669 192.98C215.049 192.88 214.709 192.64 214.649 192.26C214.469 193.2 213.549 194.04 211.849 194.8C212.749 193.92 213.189 192.74 213.189 191.28V180.62C213.249 180.1 213.189 179.6 213.009 179.12C212.669 178.16 211.969 177.76 210.909 177.94C210.429 178 209.949 178.28 209.449 178.74C208.449 179.64 207.909 181.08 207.809 183.02V192.4H209.309V192.7H204.389V192.4H204.909C205.089 192.42 205.269 192.36 205.449 192.24C205.789 192 205.969 191.56 205.969 190.92L205.989 173.34C206.049 173.08 206.009 172.82 205.869 172.58C205.609 172.1 205.009 171.9 204.089 171.98ZM266.874 190.08V181.26C266.874 180.14 266.614 179.44 266.074 179.18C265.814 179.04 265.534 179 265.274 179.1V178.92C265.434 178.9 265.734 178.68 266.154 178.26C266.634 177.8 267.034 177.48 267.374 177.32C268.274 177.78 268.734 178.82 268.734 180.4V188.98C268.634 190.04 268.814 190.94 269.274 191.66C269.814 192.56 270.614 192.78 271.674 192.32C272.914 191.78 273.674 190.52 273.934 188.54V179C273.994 178.4 273.694 178.1 273.054 178.1H272.534V177.8H275.794V192.4H277.194V192.7H275.774C274.934 192.7 274.314 192.96 273.934 193.5V189.88C273.554 191.02 272.954 191.88 272.114 192.5C271.214 193.16 270.174 193.38 268.994 193.18C268.014 193.06 267.374 192.5 267.054 191.52C266.894 191.02 266.834 190.54 266.874 190.08ZM332.189 183.14L332.129 182.96C333.149 182.38 333.669 181.7 333.729 180.88C333.789 179.76 333.309 179.04 332.289 178.72C331.349 178.42 330.449 178.52 329.589 179.02C328.889 179.4 328.369 180.02 328.029 180.88C327.569 182.14 327.769 183.14 328.669 183.9C329.289 184.42 330.329 184.88 331.829 185.28C332.489 185.42 333.129 185.7 333.789 186.12C335.109 186.94 335.769 188.02 335.769 189.36C335.789 189.82 335.689 190.3 335.469 190.8C335.009 191.82 334.129 192.46 332.829 192.76C331.929 193.1 330.689 192.96 329.109 192.36C328.929 192.26 328.729 192.22 328.549 192.24C328.189 192.26 328.009 192.52 328.009 193.02H327.809V187.44H328.009C327.969 188.12 328.069 188.84 328.309 189.6C328.769 191.12 329.689 192.1 331.049 192.54C331.929 192.78 332.649 192.64 333.209 192.1C333.629 191.7 333.849 191.18 333.889 190.54C333.949 189.92 333.829 189.4 333.529 188.98C333.189 188.46 332.669 188.02 331.949 187.64C330.089 186.86 328.809 185.94 328.109 184.92C327.809 184.58 327.609 184.08 327.489 183.44C327.249 182.16 327.569 180.78 328.449 179.3C328.669 178.96 328.829 178.6 328.929 178.26C329.169 177.58 329.049 177.26 328.549 177.32C328.869 177.14 329.189 177.04 329.489 177.02C330.069 177 330.289 177.4 330.129 178.24C330.709 177.82 331.469 177.56 332.389 177.46C333.669 177.32 334.629 177.68 335.249 178.54C335.509 178.98 335.569 179.5 335.429 180.12C335.169 181.32 334.089 182.32 332.189 183.14ZM390.84 192.4V192.7H385.96V192.4H386.56C387.2 192.36 387.52 191.88 387.52 190.96V180.74C387.56 180.44 387.52 180.12 387.38 179.8C387.12 179.18 386.54 178.88 385.66 178.88V178.66C386 178.68 386.5 178.38 387.14 177.74C387.36 177.52 387.7 177.26 388.18 176.98C388.74 177.36 389.12 178.1 389.3 179.24C389.34 179.28 389.36 179.84 389.36 180.94V192.4H390.84ZM387.46 173.38C388 172.82 388.54 172.74 389.08 173.14C389.24 173.26 389.36 173.42 389.42 173.62C389.56 174.04 389.4 174.48 388.94 174.94C388.6 175.28 388.22 175.42 387.78 175.36C387.22 175.26 386.96 174.92 387.02 174.3C387.06 173.94 387.2 173.64 387.46 173.38ZM444.608 181.92H444.788C444.488 183.2 443.928 184.02 443.068 184.36C442.648 184.52 442.248 184.56 441.888 184.48C441.108 184.32 440.608 183.88 440.368 183.14C440.248 182.78 440.208 182.44 440.248 182.1C440.328 181.04 440.888 180.06 441.948 179.2C441.468 179.28 441.148 179.18 440.968 178.88C440.868 178.72 440.828 178.56 440.848 178.4C440.888 177.78 441.168 177.42 441.708 177.28L441.788 177.38C441.548 177.7 441.568 178 441.828 178.26C442.088 178.52 442.368 178.56 442.708 178.42C443.968 177.84 445.008 177.52 445.828 177.46C446.848 177.38 447.728 177.54 448.468 177.96C449.328 178.44 449.728 179.14 449.668 180.06V191.26C449.668 192.02 449.908 192.4 450.368 192.4H451.068V192.7H447.728V191.48C446.748 192.5 445.548 193.02 444.128 193.02C442.668 193.02 441.668 192.58 441.108 191.68C440.808 191.24 440.668 190.8 440.688 190.36C440.708 188.54 441.568 187.38 443.268 186.86C444.848 186.36 446.348 186.58 447.728 187.52V180.4C447.728 178.94 447.148 178.1 445.968 177.84C445.028 177.62 444.068 177.86 443.088 178.58C442.088 179.3 441.588 180.14 441.588 181.08C441.588 181.82 441.828 182.34 442.308 182.68C442.548 182.84 442.788 182.94 443.028 182.96C443.848 183.02 444.368 182.66 444.608 181.92ZM442.708 189.76C442.728 190.08 442.768 190.36 442.868 190.58C443.228 191.6 443.848 192.2 444.748 192.36C445.208 192.44 445.608 192.42 445.988 192.28C446.688 192.1 447.268 191.74 447.728 191.22V187.76C446.988 187.24 446.208 186.96 445.388 186.94C444.608 186.92 443.948 187.2 443.408 187.76C442.908 188.3 442.668 188.98 442.708 189.76ZM505.646 183.14L505.586 182.96C506.606 182.38 507.126 181.7 507.186 180.88C507.246 179.76 506.766 179.04 505.746 178.72C504.806 178.42 503.906 178.52 503.046 179.02C502.346 179.4 501.826 180.02 501.486 180.88C501.026 182.14 501.226 183.14 502.126 183.9C502.746 184.42 503.786 184.88 505.286 185.28C505.946 185.42 506.586 185.7 507.246 186.12C508.566 186.94 509.226 188.02 509.226 189.36C509.246 189.82 509.146 190.3 508.926 190.8C508.466 191.82 507.586 192.46 506.286 192.76C505.386 193.1 504.146 192.96 502.566 192.36C502.386 192.26 502.186 192.22 502.006 192.24C501.646 192.26 501.466 192.52 501.466 193.02H501.266V187.44H501.466C501.426 188.12 501.526 188.84 501.766 189.6C502.226 191.12 503.146 192.1 504.506 192.54C505.386 192.78 506.106 192.64 506.666 192.1C507.086 191.7 507.306 191.18 507.346 190.54C507.406 189.92 507.286 189.4 506.986 188.98C506.646 188.46 506.126 188.02 505.406 187.64C503.546 186.86 502.266 185.94 501.566 184.92C501.266 184.58 501.066 184.08 500.946 183.44C500.706 182.16 501.026 180.78 501.906 179.3C502.126 178.96 502.286 178.6 502.386 178.26C502.626 177.58 502.506 177.26 502.006 177.32C502.326 177.14 502.646 177.04 502.946 177.02C503.526 177 503.746 177.4 503.586 178.24C504.166 177.82 504.926 177.56 505.846 177.46C507.126 177.32 508.086 177.68 508.706 178.54C508.966 178.98 509.026 179.5 508.886 180.12C508.626 181.32 507.546 182.32 505.646 183.14ZM567.066 190.96C567.006 184.94 566.966 181.16 566.966 179.66C566.966 178.72 566.666 178.1 566.046 177.82C565.726 177.68 565.406 177.62 565.106 177.68C564.126 177.82 563.426 178.48 563.026 179.64C562.826 180.22 562.726 180.8 562.726 181.36V192.4H564.066V192.7H559.406V192.4H559.986C560.126 192.42 560.286 192.36 560.426 192.26C560.726 192.04 560.866 191.62 560.866 191V180.82C560.906 180.52 560.866 180.22 560.726 179.92C560.466 179.32 559.926 179.02 559.106 179.02V178.84C559.426 178.86 559.806 178.64 560.266 178.18C560.786 177.66 561.206 177.36 561.546 177.26C562.246 177.84 562.626 178.68 562.726 179.78C562.846 179.18 563.186 178.6 563.726 178.02C564.346 177.38 565.026 177.04 565.766 176.98C567.226 176.86 568.166 177.34 568.606 178.4C568.826 178.92 568.906 179.46 568.846 180.02C569.126 178.62 569.806 177.68 570.866 177.2C571.406 176.98 571.906 176.88 572.366 176.92C573.546 176.92 574.366 177.42 574.786 178.4C574.986 178.9 575.066 179.4 575.046 179.9V191.14C575.046 191.76 575.206 192.2 575.526 192.44C575.666 192.56 575.826 192.62 575.986 192.62C575.526 192.84 575.146 192.82 574.846 192.58C574.706 192.48 574.606 192.34 574.546 192.18C574.006 193.36 573.146 194.14 571.926 194.52C571.826 194.54 571.806 194.52 571.866 194.46C572.846 193.86 573.286 192.48 573.206 190.32C573.226 185.38 573.226 181.92 573.206 179.9C573.206 178.68 572.846 177.94 572.126 177.68C571.746 177.54 571.386 177.52 571.026 177.62C570.066 177.84 569.426 178.66 569.086 180.06C568.926 180.76 568.866 181.44 568.886 182.1V192.4H570.226V192.7H565.566V192.4H566.146C566.306 192.42 566.466 192.36 566.606 192.24C566.906 192.02 567.066 191.58 567.066 190.96ZM683.026 173.32C682.886 174.42 683.346 175.48 684.386 176.5C684.886 177.02 685.426 177.42 685.966 177.72H689.046V178.34H685.726L685.746 192.4H686.966V192.7H682.506V192.4H683.046C683.626 192.4 683.926 191.98 683.926 191.14V178.4H681.846V177.76H683.446C682.986 177.42 682.646 176.94 682.386 176.3C681.886 175.02 682.166 173.62 683.226 172.08C683.566 171.6 684.066 171.14 684.686 170.68C685.946 169.78 687.286 169.38 688.706 169.5C689.106 169.52 689.266 169.82 689.186 170.4C689.126 170.88 689.006 171.26 688.806 171.54C688.726 171.64 688.506 171.9 688.126 172.28C687.846 172.58 687.646 172.88 687.506 173.16L687.326 173.1C687.586 172.66 687.646 172.24 687.506 171.86C687.446 171.62 687.266 171.42 687.006 171.24C686.486 170.86 685.746 170.8 684.806 171.06C683.706 171.48 683.126 172.22 683.026 173.32ZM745.676 177.4C747.516 177.06 749.076 177.44 750.376 178.52C752.056 179.9 752.896 181.94 752.916 184.68C752.896 186.62 752.476 188.28 751.616 189.68C750.916 190.82 749.956 191.66 748.716 192.2C747.516 192.74 746.256 192.92 744.956 192.74C742.116 192.36 740.356 190.76 739.656 187.9C738.996 185.2 739.476 182.7 741.136 180.36C740.916 180.46 740.656 180.5 740.396 180.5C739.896 180.5 739.576 180.24 739.436 179.74C739.296 179.28 739.396 178.88 739.716 178.52C740.096 178.08 740.696 178.02 741.496 178.36C741.336 178.36 741.196 178.48 741.076 178.7C740.936 178.94 740.956 179.14 741.096 179.28C741.356 179.48 741.616 179.52 741.876 179.38C744.256 178.08 745.536 177.42 745.676 177.4ZM741.736 180.16C740.436 181.72 739.996 183.5 740.416 185.5C740.836 187.5 741.976 188.96 743.836 189.9C745.676 190.82 747.536 190.9 749.396 190.14C750.536 189.64 751.376 188.8 751.956 187.6C752.496 186.5 752.716 185.28 752.616 183.96C752.616 183.3 752.436 182.6 752.056 181.84C751.296 180.3 749.956 179.22 748.056 178.6C747.416 178.38 746.676 178.28 745.816 178.3C744.116 178.36 742.756 178.98 741.736 180.16ZM801.355 179.02V178.82C801.795 178.76 802.235 178.52 802.655 178.12C803.155 177.64 803.535 177.34 803.795 177.24C804.335 177.6 804.675 178.32 804.855 179.38C804.915 179.7 804.955 180.38 804.955 181.4C805.255 179.76 806.055 178.32 807.355 177.1C807.315 177.54 807.555 177.8 808.095 177.9C808.495 177.92 808.855 178.06 809.195 178.3C809.875 178.8 810.095 179.56 809.835 180.62H809.715C809.815 180.12 809.515 179.76 808.795 179.54C807.295 179.12 806.335 179.26 805.875 179.98C805.275 180.84 804.975 181.82 804.975 182.92V192.4H806.315V192.7H801.655V192.4H802.215C802.375 192.4 802.535 192.36 802.675 192.26C802.975 192.04 803.135 191.68 803.135 191.16V180.8C803.175 180.5 803.135 180.2 802.995 179.9C802.735 179.32 802.175 179.02 801.355 179.02ZM924.449 190.96C924.389 184.94 924.349 181.16 924.349 179.66C924.349 178.72 924.049 178.1 923.429 177.82C923.109 177.68 922.789 177.62 922.489 177.68C921.509 177.82 920.809 178.48 920.409 179.64C920.209 180.22 920.109 180.8 920.109 181.36V192.4H921.449V192.7H916.789V192.4H917.369C917.509 192.42 917.669 192.36 917.809 192.26C918.109 192.04 918.249 191.62 918.249 191V180.82C918.289 180.52 918.249 180.22 918.109 179.92C917.849 179.32 917.309 179.02 916.489 179.02V178.84C916.809 178.86 917.189 178.64 917.649 178.18C918.169 177.66 918.589 177.36 918.929 177.26C919.629 177.84 920.009 178.68 920.109 179.78C920.229 179.18 920.569 178.6 921.109 178.02C921.729 177.38 922.409 177.04 923.149 176.98C924.609 176.86 925.549 177.34 925.989 178.4C926.209 178.92 926.289 179.46 926.229 180.02C926.509 178.62 927.189 177.68 928.249 177.2C928.789 176.98 929.289 176.88 929.749 176.92C930.929 176.92 931.749 177.42 932.169 178.4C932.369 178.9 932.449 179.4 932.429 179.9V191.14C932.429 191.76 932.589 192.2 932.909 192.44C933.049 192.56 933.209 192.62 933.369 192.62C932.909 192.84 932.529 192.82 932.229 192.58C932.089 192.48 931.989 192.34 931.929 192.18C931.389 193.36 930.529 194.14 929.309 194.52C929.209 194.54 929.189 194.52 929.249 194.46C930.229 193.86 930.669 192.48 930.589 190.32C930.609 185.38 930.609 181.92 930.589 179.9C930.589 178.68 930.229 177.94 929.509 177.68C929.129 177.54 928.769 177.52 928.409 177.62C927.449 177.84 926.809 178.66 926.469 180.06C926.309 180.76 926.249 181.44 926.269 182.1V192.4H927.609V192.7H922.949V192.4H923.529C923.689 192.42 923.849 192.36 923.989 192.24C924.289 192.02 924.449 191.58 924.449 190.96ZM984.53 190.08V181.26C984.53 180.14 984.27 179.44 983.73 179.18C983.47 179.04 983.19 179 982.93 179.1V178.92C983.09 178.9 983.39 178.68 983.81 178.26C984.29 177.8 984.69 177.48 985.03 177.32C985.93 177.78 986.39 178.82 986.39 180.4V188.98C986.29 190.04 986.47 190.94 986.93 191.66C987.47 192.56 988.27 192.78 989.33 192.32C990.57 191.78 991.33 190.52 991.59 188.54V179C991.65 178.4 991.35 178.1 990.71 178.1H990.19V177.8H993.45V192.4H994.85V192.7H993.43C992.59 192.7 991.97 192.96 991.59 193.5V189.88C991.21 191.02 990.61 191.88 989.77 192.5C988.87 193.16 987.83 193.38 986.65 193.18C985.67 193.06 985.03 192.5 984.71 191.52C984.55 191.02 984.49 190.54 984.53 190.08ZM1049.85 183.14L1049.79 182.96C1050.81 182.38 1051.33 181.7 1051.39 180.88C1051.45 179.76 1050.97 179.04 1049.95 178.72C1049.01 178.42 1048.11 178.52 1047.25 179.02C1046.55 179.4 1046.03 180.02 1045.69 180.88C1045.23 182.14 1045.43 183.14 1046.33 183.9C1046.95 184.42 1047.99 184.88 1049.49 185.28C1050.15 185.42 1050.79 185.7 1051.45 186.12C1052.77 186.94 1053.43 188.02 1053.43 189.36C1053.45 189.82 1053.35 190.3 1053.13 190.8C1052.67 191.82 1051.79 192.46 1050.49 192.76C1049.59 193.1 1048.35 192.96 1046.77 192.36C1046.59 192.26 1046.39 192.22 1046.21 192.24C1045.85 192.26 1045.67 192.52 1045.67 193.02H1045.47V187.44H1045.67C1045.63 188.12 1045.73 188.84 1045.97 189.6C1046.43 191.12 1047.35 192.1 1048.71 192.54C1049.59 192.78 1050.31 192.64 1050.87 192.1C1051.29 191.7 1051.51 191.18 1051.55 190.54C1051.61 189.92 1051.49 189.4 1051.19 188.98C1050.85 188.46 1050.33 188.02 1049.61 187.64C1047.75 186.86 1046.47 185.94 1045.77 184.92C1045.47 184.58 1045.27 184.08 1045.15 183.44C1044.91 182.16 1045.23 180.78 1046.11 179.3C1046.33 178.96 1046.49 178.6 1046.59 178.26C1046.83 177.58 1046.71 177.26 1046.21 177.32C1046.53 177.14 1046.85 177.04 1047.15 177.02C1047.73 177 1047.95 177.4 1047.79 178.24C1048.37 177.82 1049.13 177.56 1050.05 177.46C1051.33 177.32 1052.29 177.68 1052.91 178.54C1053.17 178.98 1053.23 179.5 1053.09 180.12C1052.83 181.32 1051.75 182.32 1049.85 183.14ZM1108.5 192.4V192.7H1103.62V192.4H1104.22C1104.86 192.36 1105.18 191.88 1105.18 190.96V180.74C1105.22 180.44 1105.18 180.12 1105.04 179.8C1104.78 179.18 1104.2 178.88 1103.32 178.88V178.66C1103.66 178.68 1104.16 178.38 1104.8 177.74C1105.02 177.52 1105.36 177.26 1105.84 176.98C1106.4 177.36 1106.78 178.1 1106.96 179.24C1107 179.28 1107.02 179.84 1107.02 180.94V192.4H1108.5ZM1105.12 173.38C1105.66 172.82 1106.2 172.74 1106.74 173.14C1106.9 173.26 1107.02 173.42 1107.08 173.62C1107.22 174.04 1107.06 174.48 1106.6 174.94C1106.26 175.28 1105.88 175.42 1105.44 175.36C1104.88 175.26 1104.62 174.92 1104.68 174.3C1104.72 173.94 1104.86 173.64 1105.12 173.38ZM1168.96 177.42C1169.06 178.14 1168.78 178.82 1168.1 179.44C1167.4 180.08 1167.04 180.56 1166.98 180.9C1166.9 180.52 1166.68 180.14 1166.34 179.76C1165.64 179.02 1164.66 178.64 1163.38 178.64C1162.88 178.62 1162.34 178.74 1161.72 178.96C1160.48 179.42 1159.54 180.28 1158.9 181.54C1158.64 182.06 1158.48 182.72 1158.38 183.52C1158.2 185.12 1158.54 186.62 1159.38 188C1160.18 189.34 1161.32 190.16 1162.78 190.5C1164.16 190.84 1165.58 190.66 1167.06 190C1167.5 189.82 1167.94 189.54 1168.4 189.14C1169.3 188.34 1169.82 187.36 1169.94 186.22C1170.04 186.2 1170.08 186.2 1170.08 186.22C1170.1 187.32 1169.86 188.44 1169.36 189.54C1168.36 191.76 1166.54 192.86 1163.92 192.86C1163.22 192.92 1162.44 192.76 1161.6 192.38C1159.94 191.64 1158.78 190.16 1158.16 187.96C1157.94 187.22 1157.84 186.32 1157.86 185.26C1157.88 183.18 1158.46 181.4 1159.58 179.94C1160.88 178.18 1162.64 177.3 1164.84 177.3C1165.52 177.24 1166.38 177.38 1167.44 177.7C1168.14 177.94 1168.64 177.84 1168.96 177.42Z" fill="white"/>
</svg>
