<svg width="73" height="19" viewBox="0 0 73 19" fill="none" xmlns="http://www.w3.org/2000/svg">
<path d="M8.88807 14.96C8.82807 8.94 8.78807 5.16 8.78807 3.66C8.78807 2.72 8.48807 2.1 7.86807 1.82C7.54807 1.68 7.22807 1.62 6.92807 1.68C5.94807 1.82 5.24807 2.48 4.84807 3.64C4.64807 4.22 4.54807 4.8 4.54807 5.36V16.4H5.88807V16.7H1.22807V16.4H1.80807C1.94807 16.42 2.10807 16.36 2.24807 16.26C2.54807 16.04 2.68807 15.62 2.68807 15V4.82C2.72807 4.52 2.68807 4.22 2.54807 3.92C2.28807 3.32 1.74807 3.02 0.928071 3.02V2.84C1.24807 2.86 1.62807 2.64 2.08807 2.18C2.60807 1.66 3.02807 1.36 3.36807 1.26C4.06807 1.84 4.44807 2.68 4.54807 3.78C4.66807 3.18 5.00807 2.6 5.54807 2.02C6.16807 1.38 6.84807 1.04 7.58807 0.98C9.04807 0.859999 9.98807 1.34 10.4281 2.4C10.6481 2.92 10.7281 3.46 10.6681 4.02C10.9481 2.62 11.6281 1.68 12.6881 1.2C13.2281 0.98 13.7281 0.879999 14.1881 0.92C15.3681 0.92 16.1881 1.42 16.6081 2.4C16.8081 2.9 16.8881 3.4 16.8681 3.9V15.14C16.8681 15.76 17.0281 16.2 17.3481 16.44C17.4881 16.56 17.6481 16.62 17.8081 16.62C17.3481 16.84 16.9681 16.82 16.6681 16.58C16.5281 16.48 16.4281 16.34 16.3681 16.18C15.8281 17.36 14.9681 18.14 13.7481 18.52C13.6481 18.54 13.6281 18.52 13.6881 18.46C14.6681 17.86 15.1081 16.48 15.0281 14.32C15.0481 9.38 15.0481 5.92 15.0281 3.9C15.0281 2.68 14.6681 1.94 13.9481 1.68C13.5681 1.54 13.2081 1.52 12.8481 1.62C11.8881 1.84 11.2481 2.66 10.9081 4.06C10.7481 4.76 10.6881 5.44 10.7081 6.1V16.4H12.0481V16.7H7.38807V16.4H7.96807C8.12807 16.42 8.28807 16.36 8.42807 16.24C8.72807 16.02 8.88807 15.58 8.88807 14.96ZM18.9695 14.08V5.26C18.9695 4.14 18.7095 3.44 18.1695 3.18C17.9095 3.04 17.6295 3 17.3695 3.1V2.92C17.5295 2.9 17.8295 2.68 18.2495 2.26C18.7295 1.8 19.1295 1.48 19.4695 1.32C20.3695 1.78 20.8295 2.82 20.8295 4.4V12.98C20.7295 14.04 20.9095 14.94 21.3695 15.66C21.9095 16.56 22.7095 16.78 23.7695 16.32C25.0095 15.78 25.7695 14.52 26.0295 12.54V3C26.0895 2.4 25.7895 2.1 25.1495 2.1H24.6295V1.8H27.8895V16.4H29.2895V16.7H27.8695C27.0295 16.7 26.4095 16.96 26.0295 17.5V13.88C25.6495 15.02 25.0495 15.88 24.2095 16.5C23.3095 17.16 22.2695 17.38 21.0895 17.18C20.1095 17.06 19.4695 16.5 19.1495 15.52C18.9895 15.02 18.9295 14.54 18.9695 14.08ZM34.2848 7.14L34.2248 6.96C35.2448 6.38 35.7648 5.7 35.8248 4.88C35.8848 3.76 35.4048 3.04 34.3848 2.72C33.4448 2.42 32.5448 2.52 31.6848 3.02C30.9848 3.4 30.4648 4.02 30.1248 4.88C29.6648 6.14 29.8648 7.14 30.7648 7.9C31.3848 8.42 32.4248 8.88 33.9248 9.28C34.5848 9.42 35.2248 9.7 35.8848 10.12C37.2048 10.94 37.8648 12.02 37.8648 13.36C37.8848 13.82 37.7848 14.3 37.5648 14.8C37.1048 15.82 36.2248 16.46 34.9248 16.76C34.0248 17.1 32.7848 16.96 31.2048 16.36C31.0248 16.26 30.8248 16.22 30.6448 16.24C30.2848 16.26 30.1048 16.52 30.1048 17.02H29.9048V11.44H30.1048C30.0648 12.12 30.1648 12.84 30.4048 13.6C30.8648 15.12 31.7848 16.1 33.1448 16.54C34.0248 16.78 34.7448 16.64 35.3048 16.1C35.7248 15.7 35.9448 15.18 35.9848 14.54C36.0448 13.92 35.9248 13.4 35.6248 12.98C35.2848 12.46 34.7648 12.02 34.0448 11.64C32.1848 10.86 30.9048 9.94 30.2048 8.92C29.9048 8.58 29.7048 8.08 29.5848 7.44C29.3448 6.16 29.6648 4.78 30.5448 3.3C30.7648 2.96 30.9248 2.6 31.0248 2.26C31.2648 1.58 31.1448 1.26 30.6448 1.32C30.9648 1.14 31.2848 1.04 31.5848 1.02C32.1648 1 32.3848 1.4 32.2248 2.24C32.8048 1.82 33.5648 1.56 34.4848 1.46C35.7648 1.32 36.7248 1.68 37.3448 2.54C37.6048 2.98 37.6648 3.5 37.5248 4.12C37.2648 5.32 36.1848 6.32 34.2848 7.14ZM50.3729 11.06H50.5129C50.4329 11.9 50.1729 12.76 49.7529 13.66C48.8729 15.44 47.5129 16.5 45.6729 16.8C45.0329 16.92 44.3129 16.9 43.5129 16.72C41.8929 16.38 40.6129 15.48 39.7129 14C38.2329 11.52 38.0529 8.76 39.1529 5.7C39.9929 3.74 41.3729 2.46 43.2729 1.86C45.1729 1.26 47.0329 1.48 48.8529 2.54C49.1529 2.72 49.4529 2.74 49.7129 2.62L49.7729 2.76C49.4729 2.86 49.1729 3.2 48.8729 3.8C48.7729 4.1 48.5729 4.38 48.2529 4.68C47.5929 5.26 46.6929 5.56 45.5329 5.56L39.4929 5.58C38.7129 7.4 38.7929 9.22 39.7529 11C40.6729 12.74 42.0529 13.86 43.9129 14.38C44.6929 14.56 45.5329 14.58 46.4529 14.4C48.3129 14.04 49.6129 12.92 50.3729 11.06ZM47.0329 3.48C45.9129 2.44 44.5529 2.16 42.9329 2.62C41.3929 3.08 40.2929 3.98 39.6129 5.36H45.8529C46.8729 5.38 47.4129 5.1 47.4329 4.52C47.5329 4.2 47.3929 3.86 47.0329 3.48ZM56.6781 1.4C58.5181 1.06 60.0781 1.44 61.3781 2.52C63.0581 3.9 63.8981 5.94 63.9181 8.68C63.8981 10.62 63.4781 12.28 62.6181 13.68C61.9181 14.82 60.9581 15.66 59.7181 16.2C58.5181 16.74 57.2581 16.92 55.9581 16.74C53.1181 16.36 51.3581 14.76 50.6581 11.9C49.9981 9.2 50.4781 6.7 52.1381 4.36C51.9181 4.46 51.6581 4.5 51.3981 4.5C50.8981 4.5 50.5781 4.24 50.4381 3.74C50.2981 3.28 50.3981 2.88 50.7181 2.52C51.0981 2.08 51.6981 2.02 52.4981 2.36C52.3381 2.36 52.1981 2.48 52.0781 2.7C51.9381 2.94 51.9581 3.14 52.0981 3.28C52.3581 3.48 52.6181 3.52 52.8781 3.38C55.2581 2.08 56.5381 1.42 56.6781 1.4ZM52.7381 4.16C51.4381 5.72 50.9981 7.5 51.4181 9.5C51.8381 11.5 52.9781 12.96 54.8381 13.9C56.6781 14.82 58.5381 14.9 60.3981 14.14C61.5381 13.64 62.3781 12.8 62.9581 11.6C63.4981 10.5 63.7181 9.28 63.6181 7.96C63.6181 7.3 63.4381 6.6 63.0581 5.84C62.2981 4.3 60.9581 3.22 59.0581 2.6C58.4181 2.38 57.6781 2.28 56.8181 2.3C55.1181 2.36 53.7581 2.98 52.7381 4.16ZM68.5621 7.14L68.5021 6.96C69.5221 6.38 70.0421 5.7 70.1021 4.88C70.1621 3.76 69.6821 3.04 68.6621 2.72C67.7221 2.42 66.8221 2.52 65.9621 3.02C65.2621 3.4 64.7421 4.02 64.4021 4.88C63.9421 6.14 64.1421 7.14 65.0421 7.9C65.6621 8.42 66.7021 8.88 68.2021 9.28C68.8621 9.42 69.5021 9.7 70.1621 10.12C71.4821 10.94 72.1421 12.02 72.1421 13.36C72.1621 13.82 72.0621 14.3 71.8421 14.8C71.3821 15.82 70.5021 16.46 69.2021 16.76C68.3021 17.1 67.0621 16.96 65.4821 16.36C65.3021 16.26 65.1021 16.22 64.9221 16.24C64.5621 16.26 64.3821 16.52 64.3821 17.02H64.1821V11.44H64.3821C64.3421 12.12 64.4421 12.84 64.6821 13.6C65.1421 15.12 66.0621 16.1 67.4221 16.54C68.3021 16.78 69.0221 16.64 69.5821 16.1C70.0021 15.7 70.2221 15.18 70.2621 14.54C70.3221 13.92 70.2021 13.4 69.9021 12.98C69.5621 12.46 69.0421 12.02 68.3221 11.64C66.4621 10.86 65.1821 9.94 64.4821 8.92C64.1821 8.58 63.9821 8.08 63.8621 7.44C63.6221 6.16 63.9421 4.78 64.8221 3.3C65.0421 2.96 65.2021 2.6 65.3021 2.26C65.5421 1.58 65.4221 1.26 64.9221 1.32C65.2421 1.14 65.5621 1.04 65.8621 1.02C66.4421 1 66.6621 1.4 66.5021 2.24C67.0821 1.82 67.8421 1.56 68.7621 1.46C70.0421 1.32 71.0021 1.68 71.6221 2.54C71.8821 2.98 71.9421 3.5 71.8021 4.12C71.5421 5.32 70.4621 6.32 68.5621 7.14Z" fill="white"/>
</svg>
