<svg width="891" height="222" viewBox="0 0 891 222" fill="none" xmlns="http://www.w3.org/2000/svg">
<path d="M99.8965 177C99.1465 101.75 98.6465 54.5 98.6465 35.75C98.6465 24 94.8965 16.25 87.1465 12.75C83.1465 11 79.1465 10.25 75.3965 11C63.1465 12.75 54.3965 21 49.3965 35.5C46.8965 42.75 45.6465 50 45.6465 57V195H62.3965V198.75H4.14648V195H11.3965C13.1465 195.25 15.1465 194.5 16.8965 193.25C20.6465 190.5 22.3965 185.25 22.3965 177.5V50.25C22.8965 46.5 22.3965 42.75 20.6465 39C17.3965 31.5 10.6465 27.75 0.396484 27.75V25.5C4.39648 25.75 9.14648 23 14.8965 17.25C21.3965 10.75 26.6465 7 30.8965 5.75C39.6465 13 44.3965 23.5 45.6465 37.25C47.1465 29.75 51.3965 22.5 58.1465 15.25C65.8965 7.25 74.3965 2.99999 83.6465 2.25C101.896 0.74999 113.646 6.74999 119.146 20C121.896 26.5 122.896 33.25 122.146 40.25C125.646 22.75 134.146 11 147.396 4.99999C154.146 2.25 160.396 0.999987 166.146 1.49999C180.896 1.49999 191.146 7.74999 196.396 20C198.896 26.25 199.896 32.5 199.646 38.75V179.25C199.646 187 201.647 192.5 205.646 195.5C207.397 197 209.396 197.75 211.396 197.75C205.646 200.5 200.896 200.25 197.146 197.25C195.396 196 194.146 194.25 193.396 192.25C186.647 207 175.896 216.75 160.646 221.5C159.396 221.75 159.146 221.5 159.896 220.75C172.146 213.25 177.646 196 176.646 169C176.896 107.25 176.896 64 176.646 38.75C176.646 23.5 172.146 14.25 163.146 11C158.396 9.25 153.896 8.99999 149.396 10.25C137.396 13 129.396 23.25 125.146 40.75C123.146 49.5 122.396 58 122.646 66.25V195H139.396V198.75H81.1465V195H88.3965C90.3965 195.25 92.3965 194.5 94.1465 193C97.8965 190.25 99.8965 184.75 99.8965 177ZM225.914 166V55.75C225.914 41.75 222.664 33 215.914 29.75C212.664 28 209.164 27.5 205.914 28.75V26.5C207.914 26.25 211.664 23.5 216.914 18.25C222.914 12.5 227.914 8.49999 232.164 6.49999C243.414 12.25 249.164 25.25 249.164 45V152.25C247.914 165.5 250.164 176.75 255.914 185.75C262.664 197 272.664 199.75 285.914 194C301.414 187.25 310.914 171.5 314.164 146.75V27.5C314.914 20 311.164 16.25 303.164 16.25H296.664V12.5H337.414V195H354.914V198.75H337.164C326.664 198.75 318.914 202 314.164 208.75V163.5C309.414 177.75 301.914 188.5 291.414 196.25C280.164 204.5 267.164 207.25 252.414 204.75C240.164 203.25 232.164 196.25 228.164 184C226.164 177.75 225.414 171.75 225.914 166ZM417.355 79.25L416.605 77C429.355 69.75 435.855 61.25 436.605 51C437.355 37 431.355 28 418.605 24C406.855 20.25 395.605 21.5 384.855 27.75C376.105 32.5 369.605 40.25 365.355 51C359.605 66.75 362.105 79.25 373.355 88.75C381.105 95.25 394.105 101 412.855 106C421.105 107.75 429.105 111.25 437.355 116.5C453.855 126.75 462.105 140.25 462.105 157C462.355 162.75 461.105 168.75 458.355 175C452.605 187.75 441.605 195.75 425.355 199.5C414.105 203.75 398.605 202 378.855 194.5C376.605 193.25 374.105 192.75 371.855 193C367.355 193.25 365.105 196.5 365.105 202.75H362.605V133H365.105C364.605 141.5 365.855 150.5 368.855 160C374.605 179 386.105 191.25 403.105 196.75C414.105 199.75 423.105 198 430.105 191.25C435.355 186.25 438.105 179.75 438.605 171.75C439.355 164 437.855 157.5 434.105 152.25C429.855 145.75 423.355 140.25 414.355 135.5C391.105 125.75 375.105 114.25 366.355 101.5C362.605 97.25 360.105 91 358.605 83C355.605 67 359.605 49.75 370.605 31.25C373.355 27 375.355 22.5 376.605 18.25C379.605 9.74999 378.105 5.75 371.855 6.49999C375.855 4.24999 379.855 2.99999 383.605 2.74999C390.855 2.5 393.605 7.49999 391.605 18C398.855 12.75 408.355 9.5 419.855 8.25C435.855 6.49999 447.855 11 455.605 21.75C458.855 27.25 459.605 33.75 457.855 41.5C454.605 56.5 441.105 69 417.355 79.25ZM618.457 128.25H620.207C619.207 138.75 615.957 149.5 610.707 160.75C599.707 183 582.707 196.25 559.707 200C551.707 201.5 542.707 201.25 532.707 199C512.457 194.75 496.457 183.5 485.207 165C466.707 134 464.457 99.5 478.207 61.25C488.707 36.75 505.957 20.75 529.707 13.25C553.457 5.75 576.707 8.49999 599.457 21.75C603.207 24 606.957 24.25 610.207 22.75L610.957 24.5C607.207 25.75 603.457 30 599.707 37.5C598.457 41.25 595.957 44.75 591.957 48.5C583.707 55.75 572.457 59.5 557.957 59.5L482.457 59.75C472.707 82.5 473.707 105.25 485.707 127.5C497.207 149.25 514.457 163.25 537.707 169.75C547.457 172 557.957 172.25 569.457 170C592.707 165.5 608.957 151.5 618.457 128.25ZM576.707 33.5C562.707 20.5 545.707 17 525.457 22.75C506.207 28.5 492.457 39.75 483.957 57H561.957C574.707 57.25 581.457 53.75 581.707 46.5C582.957 42.5 581.207 38.25 576.707 33.5ZM697.271 7.49999C720.271 3.24999 739.771 8 756.021 21.5C777.021 38.75 787.521 64.25 787.771 98.5C787.521 122.75 782.271 143.5 771.521 161C762.771 175.25 750.771 185.75 735.271 192.5C720.271 199.25 704.521 201.5 688.271 199.25C652.771 194.5 630.771 174.5 622.021 138.75C613.771 105 619.771 73.75 640.521 44.5C637.771 45.75 634.521 46.25 631.271 46.25C625.021 46.25 621.021 43 619.271 36.75C617.521 31 618.771 26 622.771 21.5C627.521 16 635.021 15.25 645.021 19.5C643.021 19.5 641.271 21 639.771 23.75C638.021 26.75 638.271 29.25 640.021 31C643.271 33.5 646.521 34 649.771 32.25C679.521 16 695.521 7.74999 697.271 7.49999ZM648.021 42C631.771 61.5 626.271 83.75 631.521 108.75C636.771 133.75 651.021 152 674.271 163.75C697.271 175.25 720.521 176.25 743.771 166.75C758.021 160.5 768.521 150 775.771 135C782.521 121.25 785.271 106 784.021 89.5C784.021 81.25 781.771 72.5 777.021 63C767.521 43.75 750.771 30.25 727.021 22.5C719.021 19.75 709.771 18.5 699.021 18.75C677.771 19.5 660.771 27.25 648.021 42ZM845.822 79.25L845.072 77C857.822 69.75 864.322 61.25 865.072 51C865.822 37 859.822 28 847.072 24C835.322 20.25 824.072 21.5 813.322 27.75C804.572 32.5 798.072 40.25 793.822 51C788.072 66.75 790.572 79.25 801.822 88.75C809.572 95.25 822.572 101 841.322 106C849.572 107.75 857.572 111.25 865.822 116.5C882.322 126.75 890.572 140.25 890.572 157C890.822 162.75 889.572 168.75 886.822 175C881.072 187.75 870.072 195.75 853.822 199.5C842.572 203.75 827.072 202 807.322 194.5C805.072 193.25 802.572 192.75 800.322 193C795.822 193.25 793.572 196.5 793.572 202.75H791.072V133H793.572C793.072 141.5 794.322 150.5 797.322 160C803.072 179 814.572 191.25 831.572 196.75C842.572 199.75 851.572 198 858.572 191.25C863.822 186.25 866.572 179.75 867.072 171.75C867.822 164 866.322 157.5 862.572 152.25C858.322 145.75 851.822 140.25 842.822 135.5C819.572 125.75 803.572 114.25 794.822 101.5C791.072 97.25 788.572 91 787.072 83C784.072 67 788.072 49.75 799.072 31.25C801.822 27 803.822 22.5 805.072 18.25C808.072 9.74999 806.572 5.75 800.322 6.49999C804.322 4.24999 808.322 2.99999 812.072 2.74999C819.322 2.5 822.072 7.49999 820.072 18C827.322 12.75 836.822 9.5 848.322 8.25C864.322 6.49999 876.322 11 884.072 21.75C887.322 27.25 888.072 33.75 886.322 41.5C883.072 56.5 869.572 69 845.822 79.25Z" fill="white"/>
</svg>
