<svg width="23" height="25" viewBox="0 0 23 25" fill="none" xmlns="http://www.w3.org/2000/svg">
<path d="M22.9763 1.73037C22.9585 1.53624 22.9025 1.3476 22.8117 1.17531C22.7209 1.00301 22.597 0.850513 22.4471 0.726586C22.2972 0.602659 22.1244 0.509739 21.9386 0.453269C21.7528 0.3968 21.5576 0.377874 21.3645 0.39756C20.9662 0.422125 20.5936 0.603228 20.3274 0.901703C20.0612 1.20018 19.9228 1.59195 19.9423 1.99214C19.9423 2.34914 19.9423 6.06201 19.9423 10.6555L3.35005 0.706975C3.10623 0.576364 2.8331 0.510864 2.55681 0.516823C2.28052 0.522782 2.01034 0.599963 1.77232 0.740967C1.53431 0.88197 1.33641 1.08208 1.19761 1.32203C1.05881 1.56197 0.983785 1.83372 0.979736 2.11118V22.865C0.983785 23.1424 1.05881 23.4142 1.19761 23.6541C1.33641 23.8941 1.53431 24.0941 1.77232 24.2351C2.01034 24.3761 2.28052 24.4534 2.55681 24.4593C2.8331 24.4653 3.10623 24.3998 3.35005 24.2692L19.9423 14.3207C19.9423 17.3195 19.9423 20.4136 19.9423 23.0792C19.9423 23.4832 20.1021 23.8706 20.3866 24.1562C20.6711 24.4419 21.057 24.6024 21.4593 24.6024C21.6605 24.6055 21.8603 24.5685 22.0471 24.4933C22.2339 24.4182 22.4039 24.3065 22.5473 24.1647C22.6907 24.023 22.8046 23.854 22.8823 23.6676C22.96 23.4813 23 23.2812 23 23.0792C23 13.5829 23.0237 2.15877 22.9763 1.73037Z" fill="#BCBEC0"/>
</svg>
