<svg width="17" height="22" viewBox="0 0 17 22" fill="none" xmlns="http://www.w3.org/2000/svg">
<path d="M15.5265 13.9983C15.0507 13.4162 14.6747 12.9563 14.6747 12.069V8.05711C14.6747 4.81112 13.1736 2.52055 10.5495 1.74828C10.4583 1.25674 10.2037 0.813372 9.82955 0.494481C9.4554 0.17559 8.98512 0.00112915 8.49966 0.00112915C8.01419 0.00112915 7.54391 0.17559 7.16977 0.494481C6.79562 0.813372 6.54102 1.25674 6.44979 1.74828C3.82567 2.52481 2.3246 4.81325 2.3246 8.0564V12.0683C2.3246 12.9555 1.94864 13.4169 1.47215 13.9975C0.815952 14.8003 9.13117e-07 15.7991 9.13117e-07 18.2444C-8.96645e-05 18.2796 0.00655933 18.3144 0.0195643 18.347C0.0325694 18.3795 0.0516736 18.4091 0.0757877 18.4341C0.0999018 18.459 0.128549 18.4788 0.160089 18.4922C0.191629 18.5057 0.225444 18.5127 0.259592 18.5127H4.86609C4.933 19.459 5.34487 20.3441 6.01893 20.9901C6.69298 21.6362 7.57927 21.9953 8.49966 21.9953C9.42004 21.9953 10.3063 21.6362 10.9804 20.9901C11.6544 20.3441 12.0663 19.459 12.1332 18.5127H16.739C16.8081 18.5127 16.8743 18.4844 16.9231 18.4341C16.9719 18.3838 16.9993 18.3155 16.9993 18.2444C16.9993 15.7998 16.1827 14.8011 15.5265 13.9983ZM8.5031 21.4634C7.72003 21.4629 6.96564 21.1596 6.38909 20.6133C5.81253 20.0671 5.4558 19.3177 5.38941 18.5134H11.614C11.5478 19.3173 11.1915 20.0663 10.6155 20.6126C10.0395 21.1588 9.28574 21.4624 8.5031 21.4634ZM11.8853 17.9768H0.523998C0.578395 15.924 1.26352 15.0871 1.87014 14.3446C2.37142 13.7314 2.84515 13.1522 2.84515 12.069V8.05711C2.84515 5.00916 4.26773 2.88256 6.74794 2.22101C6.79984 2.20699 6.84631 2.17686 6.88104 2.13471C6.91577 2.09256 6.9371 2.04042 6.94212 1.98535C6.98187 1.58804 7.16312 1.22003 7.4508 0.952482C7.73849 0.684931 8.11219 0.536839 8.49966 0.536839C8.88712 0.536839 9.26082 0.684931 9.54851 0.952482C9.8362 1.22003 10.0174 1.58804 10.0572 1.98535C10.0626 2.03998 10.0841 2.09159 10.1188 2.13322C10.1535 2.17486 10.1998 2.20451 10.2514 2.21817C12.7302 2.87688 14.1542 5.00419 14.1542 8.05427V12.0661C14.1542 13.1493 14.6272 13.7285 15.1292 14.3418C15.7358 15.0843 16.4209 15.9211 16.4753 17.9739L11.8853 17.9768Z" fill="#D9D9D9"/>
</svg>
