<svg width="61" height="61" viewBox="0 0 61 61" fill="none" xmlns="http://www.w3.org/2000/svg">
<path d="M30.3289 60.9286C22.9858 60.9259 15.8928 58.2492 10.3656 53.3951C4.83844 48.5409 1.25205 41.8387 0.271685 34.5315C-0.708676 27.2244 0.983515 19.8082 5.03438 13.6585C9.08524 7.50873 15.2199 3.04282 22.3005 1.08904C29.3811 -0.864737 36.9271 -0.173748 43.5389 3.03378C50.1507 6.24131 55.3796 11.7477 58.2559 18.5317C61.1321 25.3158 61.4604 32.917 59.1799 39.9255C56.8994 46.9341 52.1649 52.8744 45.8544 56.6446C41.1547 59.4429 35.7928 60.9224 30.3289 60.9286ZM30.3289 1.42802C23.9324 1.42053 17.7131 3.53753 12.6398 7.44911C7.56652 11.3607 3.92412 16.8472 2.28003 23.0541C0.635935 29.2609 1.08249 35.8395 3.55011 41.7649C6.01773 47.6904 10.3678 52.63 15.9228 55.8142C21.4777 58.9984 27.9256 60.2485 34.2619 59.3696C40.5981 58.4908 46.4669 55.5323 50.9541 50.9552C55.4413 46.3781 58.2949 40.4393 59.0702 34.0641C59.8456 27.6888 58.4992 21.235 55.2408 15.7082C52.6794 11.3443 49.0316 7.72444 44.6556 5.20411C40.2797 2.68379 35.3261 1.34969 30.2814 1.33287L30.3289 1.42802Z" fill="#BCBEC0"/>
<path d="M23.6682 46.7913C23.1191 46.785 22.5946 46.5616 22.2086 46.1695C21.8225 45.7774 21.606 45.2482 21.606 44.6969C21.606 33.7964 21.606 17.2313 21.606 16.3031C21.5856 15.7606 21.7734 15.2311 22.1307 14.8236C22.488 14.4161 22.9874 14.162 23.5259 14.1135C24.0581 14.0732 24.5852 14.2416 24.9963 14.5834C25.4074 14.9252 25.6706 15.4136 25.7304 15.9461C25.7304 16.5411 25.7304 31.9161 25.7304 44.6969C25.7335 44.9708 25.6824 45.2426 25.5802 45.4965C25.478 45.7505 25.3266 45.9816 25.1348 46.1764C24.943 46.3712 24.7146 46.5259 24.4628 46.6314C24.2111 46.737 23.941 46.7913 23.6682 46.7913Z" fill="#BCBEC0"/>
<path d="M36.8945 46.7913C36.3413 46.7913 35.8107 46.5707 35.4196 46.1779C35.0284 45.7851 34.8086 45.2524 34.8086 44.6969C34.8086 33.7964 34.8086 17.2314 34.8086 16.3032C34.7823 15.7592 34.968 15.2263 35.3265 14.8176C35.6849 14.4088 36.1878 14.1563 36.7286 14.1136C37.2645 14.0736 37.7947 14.2453 38.2065 14.592C38.6182 14.9388 38.8788 15.4332 38.9329 15.97C38.9329 16.5412 38.9329 31.9162 38.9329 44.6969C38.9361 44.9688 38.8858 45.2387 38.7851 45.4912C38.6843 45.7436 38.5351 45.9736 38.3458 46.1681C38.1565 46.3626 37.9309 46.5177 37.6819 46.6247C37.4329 46.7316 37.1653 46.7882 36.8945 46.7913Z" fill="#BCBEC0"/>
</svg>
