<svg width="37" height="23" viewBox="0 0 37 23" fill="none" xmlns="http://www.w3.org/2000/svg">
<path d="M10.5542 20.9542H1.57755C1.37039 20.9542 1.16523 20.9118 0.973836 20.8296C0.782445 20.7473 0.60853 20.6267 0.462045 20.4746C0.31556 20.3226 0.199402 20.1421 0.120125 19.9434C0.0408478 19.7447 6.81649e-08 19.5318 6.81651e-08 19.3168C-6.10441e-05 19.1035 0.0409704 18.8924 0.120698 18.6959C0.200426 18.4994 0.317224 18.3215 0.464223 18.1725C0.611222 18.0236 0.78551 17.9066 0.976702 17.8286C1.16789 17.7506 1.37219 17.7131 1.57755 17.7183H10.5542C12.1416 17.708 13.6606 17.0463 14.7795 15.8776C15.8984 14.7089 16.5264 13.128 16.5263 11.4804C16.5263 8.97814 17.484 6.57843 19.1886 4.80907C20.8932 3.0397 23.205 2.04568 25.6157 2.04568H32.9023C33.3141 2.05587 33.7057 2.23287 33.9935 2.53885C34.2812 2.84483 34.4423 3.25545 34.4422 3.68306C34.4422 3.89297 34.4024 4.10091 34.325 4.29484C34.2476 4.48878 34.1342 4.66492 33.9912 4.81335C33.8482 4.96178 33.6784 5.0796 33.4915 5.15993C33.3047 5.24026 33.1045 5.28153 32.9023 5.28153H25.6533C24.0694 5.28153 22.5504 5.93461 21.4305 7.09713C20.3105 8.25965 19.6813 9.83635 19.6813 11.4804C19.6813 12.7245 19.4452 13.9565 18.9865 15.1059C18.5278 16.2553 17.8556 17.2997 17.0081 18.1794C16.1606 19.0592 15.1544 19.757 14.047 20.2331C12.9397 20.7092 11.7528 20.9542 10.5542 20.9542Z" fill="#BCBEC0"/>
<path d="M32.9023 20.9542H25.8034C24.6066 20.9543 23.4216 20.7089 22.3164 20.2323C21.2112 19.7557 20.2075 19.0573 19.363 18.1771C18.5185 17.2968 17.8497 16.2521 17.3952 15.1029C16.9406 13.9537 16.7091 12.7227 16.7141 11.4804C16.7042 9.8395 16.0719 8.26874 14.954 7.10843C13.8362 5.94813 12.3229 5.29175 10.7421 5.28153H1.76531C1.55994 5.28673 1.35565 5.24923 1.16445 5.17123C0.973262 5.09324 0.799088 4.97634 0.652089 4.82739C0.50509 4.67844 0.388292 4.50052 0.308564 4.304C0.228837 4.10749 0.187805 3.89629 0.187866 3.68306C0.187866 3.24878 0.354072 2.83236 0.649911 2.52528C0.945751 2.21821 1.34693 2.04568 1.76531 2.04568H10.7421C13.1497 2.05595 15.4559 3.05322 17.1584 4.82037C18.8608 6.58751 19.8216 8.9813 19.8315 11.4804C19.8314 13.128 20.4594 14.7089 21.5783 15.8776C22.6972 17.0463 24.2161 17.708 25.8034 17.7183H32.9023C33.3107 17.7183 33.7024 17.8867 33.9912 18.1865C34.28 18.4862 34.4422 18.8928 34.4422 19.3168C34.4472 19.5299 34.4111 19.742 34.336 19.9404C34.2608 20.1389 34.1482 20.3198 34.0047 20.4724C33.8612 20.625 33.6897 20.7462 33.5004 20.829C33.3111 20.9117 33.1077 20.9543 32.9023 20.9542Z" fill="#BCBEC0"/>
<path d="M30.1229 6.84112V0.486268C30.1262 0.400956 30.1503 0.317831 30.1928 0.244742C30.2353 0.171654 30.2949 0.110959 30.3661 0.0681792C30.4373 0.0253999 30.5177 0.00200811 30.5999 0.000123876C30.6822 -0.00176036 30.7636 0.0178752 30.8365 0.0573522L35.9822 3.25429C36.052 3.29994 36.1095 3.36323 36.1494 3.43823C36.1893 3.51322 36.2101 3.59742 36.2101 3.68308C36.2101 3.76875 36.1893 3.85306 36.1494 3.92806C36.1095 4.00306 36.052 4.06635 35.9822 4.112L30.8365 7.26991C30.7636 7.30939 30.6822 7.32914 30.5999 7.32726C30.5177 7.32537 30.4373 7.30186 30.3661 7.25908C30.2949 7.21631 30.2353 7.15561 30.1928 7.08252C30.1503 7.00943 30.1262 6.92643 30.1229 6.84112Z" fill="#BCBEC0"/>
<path d="M30.1229 22.5137V16.1199C30.1262 16.0346 30.1503 15.9516 30.1928 15.8785C30.2353 15.8054 30.2949 15.7447 30.3661 15.7019C30.4373 15.6591 30.5177 15.6356 30.5999 15.6337C30.6822 15.6318 30.7636 15.6516 30.8365 15.6911L35.9822 18.888C36.052 18.9337 36.1095 18.997 36.1494 19.072C36.1893 19.1469 36.2101 19.2311 36.2101 19.3168C36.2101 19.4025 36.1893 19.4868 36.1494 19.5618C36.1095 19.6368 36.052 19.7001 35.9822 19.7457L30.8365 22.9425C30.7636 22.982 30.6822 23.0018 30.5999 22.9999C30.5177 22.998 30.4373 22.9746 30.3661 22.9318C30.2949 22.8891 30.2353 22.8282 30.1928 22.7552C30.1503 22.6821 30.1262 22.5991 30.1229 22.5137Z" fill="#BCBEC0"/>
</svg>
