<svg width="50" height="50" viewBox="0 0 50 50" fill="none" xmlns="http://www.w3.org/2000/svg">
<path d="M37.1792 23.3939C37.1792 22.9387 37.0065 22.515 36.6299 22.1383L26.3027 11.7798C25.9888 11.4659 25.5808 11.2618 25.157 11.2305H35.4998C36.4729 11.2305 37.1792 10.4928 37.1792 9.50403C37.1792 8.53096 36.4729 7.7933 35.4998 7.7933H14.5317C13.5429 7.7933 12.8209 8.53096 12.8209 9.50403C12.8209 10.4928 13.5429 11.2305 14.5317 11.2305H24.8431C24.4193 11.2618 24.0113 11.4659 23.6974 11.7798L13.3702 22.1383C12.9936 22.515 12.8209 22.9387 12.8209 23.3939C12.8209 24.367 13.5272 25.0889 14.4846 25.0889C14.9868 25.0889 15.4263 24.9006 15.7401 24.5867L19.3186 21.0397L23.3835 16.5039L23.2579 19.8783V39.277C23.2579 40.3285 23.9642 41.0505 25.0001 41.0505C26.0359 41.0505 26.7422 40.3285 26.7422 39.277V19.8783L26.6166 16.4882L30.6816 21.0397L34.26 24.5867C34.5739 24.9006 35.0133 25.0889 35.4998 25.0889C36.4572 25.0889 37.1792 24.367 37.1792 23.3939Z" fill="white"/>
</svg>
